<svg width="317" height="252" viewBox="0 0 317 252" fill="none" xmlns="http://www.w3.org/2000/svg">
<path d="M183.348 41.8951H210.105V68.6517H218.554V41.8951C218.554 37.2479 214.752 33.4457 210.105 33.4457H183.348V41.8951Z" fill="#FF7043"/>
<path d="M105.895 68.6517V41.8951H132.652V33.4457H105.895C101.248 33.4457 97.4457 37.2479 97.4457 41.8951V68.6517H105.895Z" fill="#FF7043"/>
<path d="M210.105 119.348V146.105H183.348V154.554H210.105C214.752 154.554 218.554 150.752 218.554 146.105V119.348H210.105Z" fill="#FF7043"/>
<path d="M132.652 146.105H105.895V119.348H97.4457V146.105C97.4457 150.752 101.248 154.554 105.895 154.554H132.652V146.105Z" fill="#FF7043"/>
<path d="M87.9401 89.7753H68.2247C65.9011 89.7753 64 91.6764 64 94C64 96.3236 65.9011 98.2247 68.2247 98.2247H87.9401V89.7753Z" fill="#FF7043"/>
<path d="M162.225 23.9401V4.22472C162.225 1.90112 160.324 0 158 0C155.676 0 153.775 1.90112 153.775 4.22472V23.9401H162.225Z" fill="#FF7043"/>
<path d="M153.775 164.06V183.775C153.775 186.099 155.676 188 158 188C160.324 188 162.225 186.099 162.225 183.775V164.06H153.775Z" fill="#FF7043"/>
<path d="M247.775 89.7753H228.06V98.2247H247.775C250.099 98.2247 252 96.3236 252 94C252 91.6764 250.099 89.7753 247.775 89.7753Z" fill="#FF7043"/>
<path d="M157.142 54C157.918 54 158.729 54 159.505 54C160.739 54.3874 161.868 54.9157 162.714 55.9017C164.653 58.1557 164.724 61.7478 162.114 64.1426C159.893 66.1852 160.739 69.7774 163.666 70.517C166.417 71.2213 168.956 72.2778 171.424 73.6513C173.998 75.0952 176.89 73.3343 176.96 70.3409C176.96 69.9887 176.96 69.6013 176.96 69.2491C177.031 66.2557 179.182 63.6848 182.144 63.0861C185.141 62.4522 188.209 64.037 189.444 66.8191C190.643 69.5661 189.796 72.8765 187.434 74.6374C185.988 75.7291 184.33 75.9757 182.567 75.9757C179.605 75.9404 177.771 78.9691 179.253 81.54C180.628 83.9348 181.721 86.4352 182.356 89.1117C182.673 90.5204 183.59 91.5417 185.036 91.8587C186.552 92.1756 187.927 91.9291 189.056 90.6613C191.313 88.1256 194.909 88.0904 197.343 90.4852C198.189 91.3304 198.612 92.4222 199 93.5139C199 94.183 199 94.8874 199 95.5565C198.859 95.8735 198.753 96.1904 198.612 96.5074C197.061 100.522 191.877 101.438 189.02 98.233C187.046 96.0143 183.414 96.6835 182.497 99.5361C181.65 102.318 180.663 105.03 179.182 107.566C178.336 109.01 178.724 110.63 179.852 111.862C180.91 112.989 182.215 112.954 183.59 112.989C186.411 113.024 188.879 114.856 189.726 117.532C190.572 120.244 189.69 123.061 187.434 124.717C185.036 126.477 182.109 126.513 179.746 124.822C177.701 123.378 176.925 121.336 176.96 118.87C176.996 115.454 173.998 113.729 171.071 115.454C168.885 116.757 166.558 117.673 164.125 118.307C162.608 118.694 161.444 119.504 161.092 121.089C160.704 122.674 161.092 124.047 162.397 125.21C164.407 126.97 164.724 130.105 163.313 132.359C162.432 133.767 161.057 134.472 159.576 135C158.906 135 158.2 135 157.53 135C157.319 134.93 157.072 134.824 156.86 134.753C154.709 134.049 153.334 132.57 152.875 130.351C152.417 128.203 153.158 126.372 154.78 124.963C156.014 123.871 156.155 122.498 155.873 121.054C155.591 119.645 154.603 118.694 153.228 118.413C150.442 117.814 147.868 116.687 145.4 115.243C143.919 114.398 142.261 114.715 141.062 115.912C140.004 116.969 139.969 118.272 139.969 119.645C139.969 122.392 138.171 124.787 135.561 125.667C132.952 126.548 130.025 125.703 128.297 123.519C126.64 121.441 126.428 118.342 127.838 116.088C129.284 113.764 131.4 112.848 134.115 112.883C137.36 112.954 139.123 109.925 137.536 107.143C136.231 104.854 135.209 102.494 134.609 99.9235C134.115 97.9161 132.775 96.9652 130.695 96.93C129.496 96.93 128.685 97.5287 127.909 98.3387C125.652 100.628 122.337 100.804 119.904 98.7261C118.882 97.8809 118.388 96.7187 118 95.5213C118 94.7465 118 93.9365 118 93.1617C118.494 91.9643 118.987 90.767 120.081 89.957C122.549 88.02 125.899 88.2313 128.156 90.8022C129.672 92.4926 133.586 92.3517 134.433 89.4639C135.279 86.5761 136.372 83.8643 137.818 81.223C138.982 79.11 137.642 76.6096 135.279 76.0813C134.68 75.9404 134.08 75.9757 133.481 75.9757C129.461 75.9404 126.428 72.3835 127.027 68.4039C127.486 65.4104 130.06 63.1213 133.269 62.8396C135.879 62.6283 138.77 64.6004 139.722 67.2065C140.11 68.263 140.075 69.3196 140.11 70.4113C140.181 73.2287 142.966 75.0248 145.435 73.7217C148.044 72.313 150.76 71.1861 153.616 70.3761C155.097 69.9535 155.943 68.6504 156.084 67.1009C156.19 65.7274 155.626 64.7413 154.674 63.8257C152.205 61.4309 152.276 57.5922 154.709 55.3735C155.273 54.7396 156.226 54.3874 157.142 54Z" fill="#5E35B1"/>
<path d="M183.348 41.8951H210.105V68.6517H218.554V41.8951C218.554 37.2479 214.752 33.4457 210.105 33.4457H183.348V41.8951Z" fill="#FF7043"/>
<path d="M105.895 68.6517V41.8951H132.652V33.4457H105.895C101.248 33.4457 97.4457 37.2479 97.4457 41.8951V68.6517H105.895Z" fill="#FF7043"/>
<path d="M210.105 119.348V146.105H183.348V154.554H210.105C214.752 154.554 218.554 150.752 218.554 146.105V119.348H210.105Z" fill="#FF7043"/>
<path d="M132.652 146.105H105.895V119.348H97.4457V146.105C97.4457 150.752 101.248 154.554 105.895 154.554H132.652V146.105Z" fill="#FF7043"/>
<path d="M87.9401 89.7753H68.2247C65.9011 89.7753 64 91.6764 64 94C64 96.3236 65.9011 98.2247 68.2247 98.2247H87.9401V89.7753Z" fill="#FF7043"/>
<path d="M162.225 23.9401V4.22472C162.225 1.90112 160.324 0 158 0C155.676 0 153.775 1.90112 153.775 4.22472V23.9401H162.225Z" fill="#FF7043"/>
<path d="M153.775 164.06V183.775C153.775 186.099 155.676 188 158 188C160.324 188 162.225 186.099 162.225 183.775V164.06H153.775Z" fill="#FF7043"/>
<path d="M247.775 89.7753H228.06V98.2247H247.775C250.099 98.2247 252 96.3236 252 94C252 91.6764 250.099 89.7753 247.775 89.7753Z" fill="#FF7043"/>
<path d="M157.142 54C157.918 54 158.729 54 159.505 54C160.739 54.3874 161.868 54.9157 162.714 55.9017C164.653 58.1557 164.724 61.7478 162.114 64.1426C159.893 66.1852 160.739 69.7774 163.666 70.517C166.417 71.2213 168.956 72.2778 171.424 73.6513C173.998 75.0952 176.89 73.3343 176.96 70.3409C176.96 69.9887 176.96 69.6013 176.96 69.2491C177.031 66.2557 179.182 63.6848 182.144 63.0861C185.141 62.4522 188.209 64.037 189.444 66.8191C190.643 69.5661 189.796 72.8765 187.434 74.6374C185.988 75.7291 184.33 75.9757 182.567 75.9757C179.605 75.9404 177.771 78.9691 179.253 81.54C180.628 83.9348 181.721 86.4352 182.356 89.1117C182.673 90.5204 183.59 91.5417 185.036 91.8587C186.552 92.1756 187.927 91.9291 189.056 90.6613C191.313 88.1256 194.909 88.0904 197.343 90.4852C198.189 91.3304 198.612 92.4222 199 93.5139C199 94.183 199 94.8874 199 95.5565C198.859 95.8735 198.753 96.1904 198.612 96.5074C197.061 100.522 191.877 101.438 189.02 98.233C187.046 96.0143 183.414 96.6835 182.497 99.5361C181.65 102.318 180.663 105.03 179.182 107.566C178.336 109.01 178.724 110.63 179.852 111.862C180.91 112.989 182.215 112.954 183.59 112.989C186.411 113.024 188.879 114.856 189.726 117.532C190.572 120.244 189.69 123.061 187.434 124.717C185.036 126.477 182.109 126.513 179.746 124.822C177.701 123.378 176.925 121.336 176.96 118.87C176.996 115.454 173.998 113.729 171.071 115.454C168.885 116.757 166.558 117.673 164.125 118.307C162.608 118.694 161.444 119.504 161.092 121.089C160.704 122.674 161.092 124.047 162.397 125.21C164.407 126.97 164.724 130.105 163.313 132.359C162.432 133.767 161.057 134.472 159.576 135C158.906 135 158.2 135 157.53 135C157.319 134.93 157.072 134.824 156.86 134.753C154.709 134.049 153.334 132.57 152.875 130.351C152.417 128.203 153.158 126.372 154.78 124.963C156.014 123.871 156.155 122.498 155.873 121.054C155.591 119.645 154.603 118.694 153.228 118.413C150.442 117.814 147.868 116.687 145.4 115.243C143.919 114.398 142.261 114.715 141.062 115.912C140.004 116.969 139.969 118.272 139.969 119.645C139.969 122.392 138.171 124.787 135.561 125.667C132.952 126.548 130.025 125.703 128.297 123.519C126.64 121.441 126.428 118.342 127.838 116.088C129.284 113.764 131.4 112.848 134.115 112.883C137.36 112.954 139.123 109.925 137.536 107.143C136.231 104.854 135.209 102.494 134.609 99.9235C134.115 97.9161 132.775 96.9652 130.695 96.93C129.496 96.93 128.685 97.5287 127.909 98.3387C125.652 100.628 122.337 100.804 119.904 98.7261C118.882 97.8809 118.388 96.7187 118 95.5213C118 94.7465 118 93.9365 118 93.1617C118.494 91.9643 118.987 90.767 120.081 89.957C122.549 88.02 125.899 88.2313 128.156 90.8022C129.672 92.4926 133.586 92.3517 134.433 89.4639C135.279 86.5761 136.372 83.8643 137.818 81.223C138.982 79.11 137.642 76.6096 135.279 76.0813C134.68 75.9404 134.08 75.9757 133.481 75.9757C129.461 75.9404 126.428 72.3835 127.027 68.4039C127.486 65.4104 130.06 63.1213 133.269 62.8396C135.879 62.6283 138.77 64.6004 139.722 67.2065C140.11 68.263 140.075 69.3196 140.11 70.4113C140.181 73.2287 142.966 75.0248 145.435 73.7217C148.044 72.313 150.76 71.1861 153.616 70.3761C155.097 69.9535 155.943 68.6504 156.084 67.1009C156.19 65.7274 155.626 64.7413 154.674 63.8257C152.205 61.4309 152.276 57.5922 154.709 55.3735C155.273 54.7396 156.226 54.3874 157.142 54Z" fill="#5E35B1"/>
<path d="M8.42509 239.928H5.44909V246H2.18509V230.16H9.16909C10.9771 230.16 12.3851 230.592 13.3931 231.456C14.4171 232.304 14.9291 233.504 14.9291 235.056C14.9291 236.192 14.6491 237.144 14.0891 237.912C13.5291 238.68 12.7291 239.232 11.6891 239.568L15.8651 246H12.1451L8.42509 239.928ZM5.44909 237.408H8.73709C9.69709 237.408 10.4011 237.224 10.8491 236.856C11.3131 236.472 11.5451 235.888 11.5451 235.104C11.5451 234.32 11.3131 233.744 10.8491 233.376C10.4011 232.992 9.69709 232.8 8.73709 232.8H5.44909V237.408ZM29.1296 244.008C29.4656 244.008 29.7376 243.976 29.9456 243.912L29.7056 245.904C29.2576 246.128 28.7376 246.24 28.1456 246.24C26.6096 246.24 25.6896 245.64 25.3856 244.44C25.0336 245.032 24.4896 245.48 23.7536 245.784C23.0176 246.088 22.1456 246.24 21.1376 246.24C19.9696 246.24 19.0576 245.976 18.4016 245.448C17.7456 244.92 17.4176 244.16 17.4176 243.168C17.4176 241.216 18.9776 239.952 22.0976 239.376L24.9776 238.824V238.248C24.9776 237.608 24.7936 237.104 24.4256 236.736C24.0736 236.352 23.5776 236.16 22.9376 236.16C22.2016 236.16 21.6016 236.32 21.1376 236.64C20.6736 236.96 20.3536 237.48 20.1776 238.2L17.5616 237.096C17.8176 236.056 18.3936 235.24 19.2896 234.648C20.1856 234.056 21.3536 233.76 22.7936 233.76C24.5056 233.76 25.8416 234.136 26.8016 234.888C27.7616 235.624 28.2416 236.72 28.2416 238.176V243.096C28.2416 243.416 28.3136 243.648 28.4576 243.792C28.6016 243.936 28.8256 244.008 29.1296 244.008ZM22.1696 244.008C22.8736 244.008 23.5136 243.84 24.0896 243.504C24.6816 243.152 24.9776 242.68 24.9776 242.088V240.84L22.4096 241.416C21.8656 241.544 21.4576 241.72 21.1856 241.944C20.9296 242.152 20.8016 242.448 20.8016 242.832C20.8016 243.216 20.9216 243.512 21.1616 243.72C21.4016 243.912 21.7376 244.008 22.1696 244.008ZM38.9988 233.76C40.5988 233.76 41.8548 234.312 42.7668 235.416C43.6788 236.504 44.1348 238.024 44.1348 239.976C44.1348 241.944 43.6788 243.48 42.7668 244.584C41.8548 245.688 40.5988 246.24 38.9988 246.24C38.1348 246.24 37.3828 246.048 36.7428 245.664C36.1028 245.264 35.5988 244.72 35.2308 244.032V251.04H31.9428V234H34.8468L34.9668 236.376C35.3188 235.576 35.8388 234.944 36.5268 234.48C37.2308 234 38.0548 233.76 38.9988 233.76ZM38.0148 243.72C38.9108 243.72 39.6068 243.4 40.1028 242.76C40.5988 242.12 40.8468 241.2 40.8468 240C40.8468 238.8 40.5988 237.88 40.1028 237.24C39.6068 236.6 38.9108 236.28 38.0148 236.28C37.2148 236.28 36.5668 236.56 36.0708 237.12C35.5748 237.664 35.2948 238.448 35.2308 239.472V240.528C35.2948 241.536 35.5748 242.32 36.0708 242.88C36.5668 243.44 37.2148 243.72 38.0148 243.72ZM48.6926 232.272C47.3326 232.272 46.6526 231.688 46.6526 230.52C46.6526 229.336 47.3326 228.744 48.6926 228.744C50.0526 228.744 50.7326 229.336 50.7326 230.52C50.7326 231.688 50.0526 232.272 48.6926 232.272ZM50.3246 246H47.0366V234H50.3246V246ZM65.426 228.744V246H62.498L62.354 243.768C62.002 244.52 61.474 245.12 60.77 245.568C60.082 246.016 59.29 246.24 58.394 246.24C56.794 246.24 55.538 245.696 54.626 244.608C53.714 243.504 53.258 241.976 53.258 240.024C53.258 238.056 53.714 236.52 54.626 235.416C55.538 234.312 56.794 233.76 58.394 233.76C59.258 233.76 60.01 233.96 60.65 234.36C61.29 234.744 61.786 235.28 62.138 235.968V228.744H65.426ZM59.354 243.72C60.218 243.72 60.898 243.408 61.394 242.784C61.89 242.16 62.138 241.272 62.138 240.12V239.88C62.138 238.744 61.89 237.864 61.394 237.24C60.898 236.6 60.218 236.28 59.354 236.28C58.474 236.28 57.786 236.6 57.29 237.24C56.794 237.88 56.546 238.8 56.546 240C56.546 241.2 56.794 242.12 57.29 242.76C57.786 243.4 58.474 243.72 59.354 243.72ZM75.8175 230.16C77.6575 230.16 79.0895 230.608 80.1135 231.504C81.1375 232.384 81.6495 233.632 81.6495 235.248C81.6495 236.816 81.1375 238.04 80.1135 238.92C79.0895 239.8 77.6575 240.24 75.8175 240.24H72.4815V246H69.1695V230.16H75.8175ZM75.3135 237.672C76.3375 237.672 77.0895 237.472 77.5695 237.072C78.0495 236.656 78.2895 236.04 78.2895 235.224C78.2895 234.408 78.0495 233.8 77.5695 233.4C77.0895 233 76.3375 232.8 75.3135 232.8H72.4815V237.672H75.3135ZM95.3171 244.008C95.6531 244.008 95.9251 243.976 96.1331 243.912L95.8931 245.904C95.4451 246.128 94.9251 246.24 94.3331 246.24C92.7971 246.24 91.8771 245.64 91.5731 244.44C91.2211 245.032 90.6771 245.48 89.9411 245.784C89.2051 246.088 88.3331 246.24 87.3251 246.24C86.1571 246.24 85.2451 245.976 84.5891 245.448C83.9331 244.92 83.6051 244.16 83.6051 243.168C83.6051 241.216 85.1651 239.952 88.2851 239.376L91.1651 238.824V238.248C91.1651 237.608 90.9811 237.104 90.6131 236.736C90.2611 236.352 89.7651 236.16 89.1251 236.16C88.3891 236.16 87.7891 236.32 87.3251 236.64C86.8611 236.96 86.5411 237.48 86.3651 238.2L83.7491 237.096C84.0051 236.056 84.5811 235.24 85.4771 234.648C86.3731 234.056 87.5411 233.76 88.9811 233.76C90.6931 233.76 92.0291 234.136 92.9891 234.888C93.9491 235.624 94.4291 236.72 94.4291 238.176V243.096C94.4291 243.416 94.5011 243.648 94.6451 243.792C94.7891 243.936 95.0131 244.008 95.3171 244.008ZM88.3571 244.008C89.0611 244.008 89.7011 243.84 90.2771 243.504C90.8691 243.152 91.1651 242.68 91.1651 242.088V240.84L88.5971 241.416C88.0531 241.544 87.6451 241.72 87.3731 241.944C87.1171 242.152 86.9891 242.448 86.9891 242.832C86.9891 243.216 87.1091 243.512 87.3491 243.72C87.5891 243.912 87.9251 244.008 88.3571 244.008ZM102.786 246.24C100.114 246.24 98.2583 245.472 97.2183 243.936L99.1383 241.968C99.4583 242.656 99.9143 243.144 100.506 243.432C101.114 243.704 101.858 243.84 102.738 243.84C103.442 243.84 103.986 243.744 104.37 243.552C104.754 243.36 104.946 243.096 104.946 242.76C104.946 242.488 104.762 242.256 104.394 242.064C104.042 241.872 103.426 241.688 102.546 241.512C100.706 241.144 99.4103 240.664 98.6583 240.072C97.9223 239.464 97.5543 238.648 97.5543 237.624C97.5543 236.952 97.7623 236.32 98.1783 235.728C98.5943 235.136 99.2103 234.664 100.026 234.312C100.842 233.944 101.818 233.76 102.954 233.76C104.298 233.76 105.386 233.968 106.218 234.384C107.05 234.784 107.746 235.424 108.306 236.304L106.266 238.032C105.914 237.392 105.474 236.92 104.946 236.616C104.434 236.312 103.786 236.16 103.002 236.16C102.346 236.16 101.818 236.272 101.418 236.496C101.034 236.72 100.842 236.992 100.842 237.312C100.842 237.648 101.034 237.928 101.418 238.152C101.802 238.376 102.482 238.584 103.458 238.776C105.202 239.128 106.434 239.592 107.154 240.168C107.89 240.728 108.258 241.512 108.258 242.52C108.258 243.64 107.778 244.544 106.818 245.232C105.874 245.904 104.53 246.24 102.786 246.24ZM115.536 246.24C112.864 246.24 111.008 245.472 109.968 243.936L111.888 241.968C112.208 242.656 112.664 243.144 113.256 243.432C113.864 243.704 114.608 243.84 115.488 243.84C116.192 243.84 116.736 243.744 117.12 243.552C117.504 243.36 117.696 243.096 117.696 242.76C117.696 242.488 117.512 242.256 117.144 242.064C116.792 241.872 116.176 241.688 115.296 241.512C113.456 241.144 112.16 240.664 111.408 240.072C110.672 239.464 110.304 238.648 110.304 237.624C110.304 236.952 110.512 236.32 110.928 235.728C111.344 235.136 111.96 234.664 112.776 234.312C113.592 233.944 114.568 233.76 115.704 233.76C117.048 233.76 118.136 233.968 118.968 234.384C119.8 234.784 120.496 235.424 121.056 236.304L119.016 238.032C118.664 237.392 118.224 236.92 117.696 236.616C117.184 236.312 116.536 236.16 115.752 236.16C115.096 236.16 114.568 236.272 114.168 236.496C113.784 236.72 113.592 236.992 113.592 237.312C113.592 237.648 113.784 237.928 114.168 238.152C114.552 238.376 115.232 238.584 116.208 238.776C117.952 239.128 119.184 239.592 119.904 240.168C120.64 240.728 121.008 241.512 121.008 242.52C121.008 243.64 120.528 244.544 119.568 245.232C118.624 245.904 117.28 246.24 115.536 246.24ZM125.286 242.328C125.926 242.328 126.43 242.504 126.798 242.856C127.182 243.208 127.374 243.68 127.374 244.272C127.374 244.864 127.182 245.336 126.798 245.688C126.43 246.04 125.926 246.216 125.286 246.216C124.646 246.216 124.134 246.048 123.75 245.712C123.382 245.36 123.198 244.88 123.198 244.272C123.198 243.664 123.382 243.192 123.75 242.856C124.134 242.504 124.646 242.328 125.286 242.328ZM137.364 230.16C139.204 230.16 140.636 230.608 141.66 231.504C142.684 232.384 143.196 233.632 143.196 235.248C143.196 236.816 142.684 238.04 141.66 238.92C140.636 239.8 139.204 240.24 137.364 240.24H134.028V246H130.716V230.16H137.364ZM136.86 237.672C137.884 237.672 138.636 237.472 139.116 237.072C139.596 236.656 139.836 236.04 139.836 235.224C139.836 234.408 139.596 233.8 139.116 233.4C138.636 233 137.884 232.8 136.86 232.8H134.028V237.672H136.86ZM159.84 230.16V246H156.528V239.328H149.544V246H146.232V230.16H149.544V236.664H156.528V230.16H159.84ZM179.607 242.136H173.511L172.215 246H168.831L174.615 230.16H178.575L184.359 246H180.927L179.607 242.136ZM178.791 239.688L177.303 235.224L176.583 232.824H176.535L175.863 235.176L174.327 239.688H178.791ZM197.684 228.744V246H194.756L194.612 243.768C194.26 244.52 193.732 245.12 193.028 245.568C192.34 246.016 191.548 246.24 190.652 246.24C189.052 246.24 187.796 245.696 186.884 244.608C185.972 243.504 185.516 241.976 185.516 240.024C185.516 238.056 185.972 236.52 186.884 235.416C187.796 234.312 189.052 233.76 190.652 233.76C191.516 233.76 192.268 233.96 192.908 234.36C193.548 234.744 194.044 235.28 194.396 235.968V228.744H197.684ZM191.612 243.72C192.476 243.72 193.156 243.408 193.652 242.784C194.148 242.16 194.396 241.272 194.396 240.12V239.88C194.396 238.744 194.148 237.864 193.652 237.24C193.156 236.6 192.476 236.28 191.612 236.28C190.732 236.28 190.044 236.6 189.548 237.24C189.052 237.88 188.804 238.8 188.804 240C188.804 241.2 189.052 242.12 189.548 242.76C190.044 243.4 190.732 243.72 191.612 243.72ZM216.186 233.76C217.418 233.76 218.434 234.136 219.234 234.888C220.05 235.64 220.458 236.72 220.458 238.128V246H217.17V238.776C217.17 237.944 216.986 237.336 216.618 236.952C216.25 236.552 215.746 236.352 215.106 236.352C214.338 236.352 213.706 236.632 213.21 237.192C212.714 237.752 212.466 238.536 212.466 239.544V246H209.178V238.776C209.178 237.944 208.994 237.336 208.626 236.952C208.258 236.552 207.746 236.352 207.09 236.352C206.37 236.352 205.746 236.632 205.218 237.192C204.706 237.736 204.45 238.552 204.45 239.64V246H201.162V234H204.114L204.21 236.136C204.61 235.352 205.154 234.76 205.842 234.36C206.546 233.96 207.33 233.76 208.194 233.76C209.09 233.76 209.882 233.968 210.57 234.384C211.274 234.8 211.786 235.4 212.106 236.184C212.49 235.4 213.05 234.8 213.786 234.384C214.522 233.968 215.322 233.76 216.186 233.76ZM225.505 232.272C224.145 232.272 223.465 231.688 223.465 230.52C223.465 229.336 224.145 228.744 225.505 228.744C226.865 228.744 227.545 229.336 227.545 230.52C227.545 231.688 226.865 232.272 225.505 232.272ZM227.137 246H223.849V234H227.137V246ZM237.775 233.76C239.071 233.76 240.111 234.136 240.895 234.888C241.695 235.64 242.095 236.72 242.095 238.128V246H238.807V239.088C238.807 237.264 238.095 236.352 236.671 236.352C235.903 236.352 235.247 236.624 234.703 237.168C234.175 237.712 233.911 238.544 233.911 239.664V246H230.623V234H233.575L233.671 236.136C234.071 235.352 234.623 234.76 235.327 234.36C236.031 233.96 236.847 233.76 237.775 233.76ZM259.802 230.16C261.642 230.16 263.074 230.608 264.098 231.504C265.122 232.384 265.634 233.632 265.634 235.248C265.634 236.816 265.122 238.04 264.098 238.92C263.074 239.8 261.642 240.24 259.802 240.24H256.466V246H253.154V230.16H259.802ZM259.298 237.672C260.322 237.672 261.074 237.472 261.554 237.072C262.034 236.656 262.274 236.04 262.274 235.224C262.274 234.408 262.034 233.8 261.554 233.4C261.074 233 260.322 232.8 259.298 232.8H256.466V237.672H259.298ZM279.301 244.008C279.637 244.008 279.909 243.976 280.117 243.912L279.877 245.904C279.429 246.128 278.909 246.24 278.317 246.24C276.781 246.24 275.861 245.64 275.557 244.44C275.205 245.032 274.661 245.48 273.925 245.784C273.189 246.088 272.317 246.24 271.309 246.24C270.141 246.24 269.229 245.976 268.573 245.448C267.917 244.92 267.589 244.16 267.589 243.168C267.589 241.216 269.149 239.952 272.269 239.376L275.149 238.824V238.248C275.149 237.608 274.965 237.104 274.597 236.736C274.245 236.352 273.749 236.16 273.109 236.16C272.373 236.16 271.773 236.32 271.309 236.64C270.845 236.96 270.525 237.48 270.349 238.2L267.733 237.096C267.989 236.056 268.565 235.24 269.461 234.648C270.357 234.056 271.525 233.76 272.965 233.76C274.677 233.76 276.013 234.136 276.973 234.888C277.933 235.624 278.413 236.72 278.413 238.176V243.096C278.413 243.416 278.485 243.648 278.629 243.792C278.773 243.936 278.997 244.008 279.301 244.008ZM272.341 244.008C273.045 244.008 273.685 243.84 274.261 243.504C274.853 243.152 275.149 242.68 275.149 242.088V240.84L272.581 241.416C272.037 241.544 271.629 241.72 271.357 241.944C271.101 242.152 270.973 242.448 270.973 242.832C270.973 243.216 271.093 243.512 271.333 243.72C271.573 243.912 271.909 244.008 272.341 244.008ZM289.267 233.76C290.563 233.76 291.603 234.136 292.387 234.888C293.187 235.64 293.587 236.72 293.587 238.128V246H290.299V239.088C290.299 237.264 289.587 236.352 288.163 236.352C287.395 236.352 286.739 236.624 286.195 237.168C285.667 237.712 285.403 238.544 285.403 239.664V246H282.115V234H285.067L285.163 236.136C285.563 235.352 286.115 234.76 286.819 234.36C287.523 233.96 288.339 233.76 289.267 233.76ZM308.182 239.952C308.182 240.4 308.15 240.832 308.086 241.248H299.59C299.926 242.944 300.926 243.792 302.59 243.792C303.278 243.792 303.846 243.664 304.294 243.408C304.742 243.152 305.054 242.784 305.23 242.304L307.918 243.288C307.534 244.248 306.886 244.984 305.974 245.496C305.078 245.992 303.95 246.24 302.59 246.24C300.606 246.24 299.07 245.696 297.982 244.608C296.894 243.504 296.35 241.968 296.35 240C296.35 238.032 296.878 236.504 297.934 235.416C298.99 234.312 300.478 233.76 302.398 233.76C304.254 233.76 305.678 234.296 306.67 235.368C307.678 236.44 308.182 237.968 308.182 239.952ZM302.374 236.184C301.574 236.184 300.934 236.416 300.454 236.88C299.99 237.344 299.694 238.032 299.566 238.944H305.158C305.03 238.048 304.726 237.368 304.246 236.904C303.766 236.424 303.142 236.184 302.374 236.184ZM314.183 242.184C314.183 242.76 314.263 243.16 314.423 243.384C314.599 243.608 314.911 243.72 315.359 243.72C315.631 243.72 315.863 243.704 316.055 243.672C316.263 243.624 316.503 243.552 316.775 243.456L316.487 245.736C316.231 245.896 315.895 246.016 315.479 246.096C315.063 246.192 314.655 246.24 314.255 246.24C313.087 246.24 312.231 245.96 311.687 245.4C311.159 244.824 310.895 243.912 310.895 242.664V228.744H314.183V242.184Z" fill="#2E2E2E"/>
</svg>
