<svg xmlns="http://www.w3.org/2000/svg" fill="none" viewBox="0 0 188 188">
  <path fill="#FF7043" d="M119.348 41.895h26.757v26.757h8.449V41.895c0-4.647-3.802-8.45-8.449-8.45h-26.757v8.45zM41.895 68.652V41.895h26.757v-8.45H41.895c-4.647 0-8.45 3.803-8.45 8.45v26.757h8.45zM146.105 119.348v26.757h-26.757v8.449h26.757c4.647 0 8.449-3.802 8.449-8.449v-26.757h-8.449zM68.652 146.105H41.895v-26.757h-8.45v26.757c0 4.647 3.803 8.449 8.45 8.449h26.757v-8.449zM23.94 89.775H4.225A4.237 4.237 0 0 0 0 94a4.237 4.237 0 0 0 4.225 4.225H23.94v-8.45zM98.225 23.94V4.225A4.237 4.237 0 0 0 94 0a4.237 4.237 0 0 0-4.225 4.225V23.94h8.45zM89.775 164.06v19.715A4.237 4.237 0 0 0 94 188a4.237 4.237 0 0 0 4.225-4.225V164.06h-8.45zM183.775 89.775H164.06v8.45h19.715A4.237 4.237 0 0 0 188 94a4.237 4.237 0 0 0-4.225-4.225z"/>
  <path fill="#5E35B1" d="M93.142 54h2.363c1.234.387 2.363.916 3.209 1.902 1.939 2.254 2.01 5.846-.6 8.24-2.221 2.043-1.375 5.635 1.552 6.375 2.751.704 5.29 1.76 7.758 3.134 2.574 1.444 5.466-.317 5.536-3.31v-1.092c.071-2.993 2.222-5.564 5.184-6.163 2.997-.634 6.065.951 7.3 3.733 1.199 2.747.352 6.057-2.01 7.818-1.446 1.092-3.104 1.339-4.867 1.339-2.962-.036-4.796 2.993-3.314 5.564 1.375 2.395 2.468 4.895 3.103 7.572.317 1.408 1.234 2.43 2.68 2.747 1.516.317 2.891.07 4.02-1.198 2.257-2.535 5.853-2.57 8.287-.176.846.845 1.269 1.937 1.657 3.029v2.043c-.141.317-.247.633-.388.95-1.551 4.015-6.735 4.931-9.592 1.726-1.974-2.219-5.606-1.55-6.523 1.303-.847 2.782-1.834 5.494-3.315 8.03-.846 1.444-.458 3.064.67 4.296 1.058 1.127 2.363 1.092 3.738 1.127a6.511 6.511 0 0 1 6.136 4.543c.846 2.712-.036 5.529-2.292 7.185-2.398 1.76-5.325 1.796-7.688.105-2.045-1.444-2.821-3.486-2.786-5.952.036-3.416-2.962-5.141-5.889-3.416-2.186 1.303-4.513 2.219-6.946 2.853-1.517.387-2.68 1.197-3.033 2.782-.388 1.585 0 2.958 1.305 4.121 2.01 1.76 2.327 4.895.916 7.149-.881 1.408-2.256 2.113-3.737 2.641H93.53c-.211-.07-.458-.176-.67-.247-2.15-.704-3.526-2.183-3.984-4.402-.459-2.148.282-3.979 1.904-5.388 1.234-1.092 1.375-2.465 1.093-3.909-.282-1.409-1.27-2.36-2.645-2.641-2.786-.599-5.36-1.726-7.828-3.17-1.481-.845-3.139-.528-4.338.669-1.058 1.057-1.093 2.36-1.093 3.733 0 2.747-1.798 5.142-4.408 6.022a6.596 6.596 0 0 1-7.264-2.148c-1.657-2.078-1.87-5.177-.458-7.431 1.445-2.324 3.561-3.24 6.276-3.205 3.245.071 5.008-2.958 3.42-5.74-1.304-2.289-2.326-4.649-2.926-7.22-.494-2.007-1.834-2.958-3.914-2.993-1.2 0-2.01.599-2.786 1.409-2.257 2.289-5.572 2.465-8.005.387-1.022-.845-1.516-2.007-1.904-3.205v-2.36c.494-1.197.987-2.394 2.08-3.204 2.469-1.937 5.819-1.726 8.076.845 1.516 1.69 5.43 1.55 6.277-1.338.846-2.888 1.94-5.6 3.385-8.241 1.164-2.113-.176-4.613-2.539-5.142-.6-.14-1.199-.105-1.798-.105a6.57 6.57 0 0 1-6.454-7.572c.459-2.994 3.033-5.283 6.242-5.564 2.61-.212 5.501 1.76 6.453 4.367.388 1.056.353 2.113.388 3.204.07 2.818 2.856 4.614 5.325 3.31a40.335 40.335 0 0 1 8.181-3.345c1.481-.422 2.327-1.726 2.469-3.275.105-1.374-.459-2.36-1.411-3.275-2.469-2.395-2.398-6.234.035-8.453.564-.633 1.516-.986 2.433-1.373z"/>
</svg>
