<svg width="205" height="76" viewBox="0 0 205 76" fill="none" xmlns="http://www.w3.org/2000/svg">
<path d="M77 38C77 39.685 76.88 41.34 76.645 42.965C76.29 45.5 75.655 47.95 74.78 50.28C70.685 61.225 61.255 69.57 49.66 72.16C48.78 72.355 47.89 72.52 46.985 72.645C45.355 72.88 43.69 73 42 73C22.67 73 7 57.33 7 38C7 18.67 22.67 3 42 3C61.33 3 77 18.67 77 38Z" fill="#0593FC"/>
<path d="M76.6451 42.9649C76.2901 45.4999 75.6551 47.9499 74.7801 50.2799C70.6851 61.2249 61.2551 69.5699 49.6601 72.1599C48.7801 72.3549 47.8901 72.5199 46.9851 72.6449L28.9951 54.6549L54.3501 20.6699L76.6451 42.9649Z" fill="#0278C1"/>
<path d="M53.4151 52.125H53.1851C53.0051 49.24 52.1551 43.2649 48.2901 40.2449C47.3551 39.5149 46.8851 38.7999 46.8901 38.125C46.8951 37.135 47.8851 36.17 48.2451 35.895C48.4451 35.75 52.9851 32.3499 53.2201 23.8799H53.4151C54.2951 23.8799 55.0051 23.17 55.0051 22.29C55.0051 21.41 54.2951 20.7 53.4151 20.7H30.5851C29.7051 20.7 28.9951 21.41 28.9951 22.29C28.9951 23.17 29.7051 23.8799 30.5851 23.8799H30.8151C30.9951 26.7649 31.8451 32.7399 35.7101 35.7599C36.6451 36.4899 37.1151 37.205 37.1101 37.88C37.1051 38.87 36.1151 39.835 35.7551 40.11C35.5551 40.255 31.0151 43.6549 30.7801 52.125H30.5901C29.7101 52.125 29.0001 52.8349 29.0001 53.715C29.0001 54.595 29.7101 55.305 30.5901 55.305H53.4201C54.3001 55.305 55.0101 54.595 55.0101 53.715C55.0101 52.8349 54.2951 52.125 53.4151 52.125Z" fill="white"/>
<path d="M102.22 32.78H97.14L96.06 36H93.24L98.06 22.8H101.36L106.18 36H103.32L102.22 32.78ZM101.54 30.74L100.3 27.02L99.7 25.02H99.66L99.1 26.98L97.82 30.74H101.54ZM113.738 25.8C115.071 25.8 116.118 26.26 116.878 27.18C117.638 28.0867 118.018 29.3533 118.018 30.98C118.018 32.62 117.638 33.9 116.878 34.82C116.118 35.74 115.071 36.2 113.738 36.2C113.018 36.2 112.391 36.04 111.858 35.72C111.325 35.3867 110.905 34.9333 110.598 34.36V40.2H107.858V26H110.278L110.378 27.98C110.671 27.3133 111.105 26.7867 111.678 26.4C112.265 26 112.951 25.8 113.738 25.8ZM112.918 34.1C113.665 34.1 114.245 33.8333 114.658 33.3C115.071 32.7667 115.278 32 115.278 31C115.278 30 115.071 29.2333 114.658 28.7C114.245 28.1667 113.665 27.9 112.918 27.9C112.251 27.9 111.711 28.1333 111.298 28.6C110.885 29.0533 110.651 29.7067 110.598 30.56V31.44C110.651 32.28 110.885 32.9333 111.298 33.4C111.711 33.8667 112.251 34.1 112.918 34.1ZM126.316 25.8C127.649 25.8 128.696 26.26 129.456 27.18C130.216 28.0867 130.596 29.3533 130.596 30.98C130.596 32.62 130.216 33.9 129.456 34.82C128.696 35.74 127.649 36.2 126.316 36.2C125.596 36.2 124.969 36.04 124.436 35.72C123.903 35.3867 123.483 34.9333 123.176 34.36V40.2H120.436V26H122.856L122.956 27.98C123.249 27.3133 123.683 26.7867 124.256 26.4C124.843 26 125.529 25.8 126.316 25.8ZM125.496 34.1C126.243 34.1 126.823 33.8333 127.236 33.3C127.649 32.7667 127.856 32 127.856 31C127.856 30 127.649 29.2333 127.236 28.7C126.823 28.1667 126.243 27.9 125.496 27.9C124.829 27.9 124.289 28.1333 123.876 28.6C123.463 29.0533 123.229 29.7067 123.176 30.56V31.44C123.229 32.28 123.463 32.9333 123.876 33.4C124.289 33.8667 124.829 34.1 125.496 34.1ZM135.714 32.82C135.714 33.3 135.781 33.6333 135.914 33.82C136.061 34.0067 136.321 34.1 136.694 34.1C136.921 34.1 137.114 34.0867 137.274 34.06C137.448 34.02 137.648 33.96 137.874 33.88L137.634 35.78C137.421 35.9133 137.141 36.0133 136.794 36.08C136.448 36.16 136.108 36.2 135.774 36.2C134.801 36.2 134.088 35.9667 133.634 35.5C133.194 35.02 132.974 34.26 132.974 33.22V21.62H135.714V32.82ZM140.781 24.56C139.648 24.56 139.081 24.0733 139.081 23.1C139.081 22.1133 139.648 21.62 140.781 21.62C141.914 21.62 142.481 22.1133 142.481 23.1C142.481 24.0733 141.914 24.56 140.781 24.56ZM142.141 36H139.401V26H142.141V36ZM149.625 25.8C150.945 25.8 151.972 26.0667 152.705 26.6C153.439 27.1333 153.939 27.8467 154.205 28.74L151.645 29.66C151.405 28.4467 150.759 27.84 149.705 27.84C148.919 27.84 148.312 28.1133 147.885 28.66C147.472 29.1933 147.265 29.98 147.265 31.02C147.265 32.06 147.479 32.8467 147.905 33.38C148.332 33.9 148.925 34.16 149.685 34.16C150.859 34.16 151.552 33.5667 151.765 32.38L154.245 33.18C154.032 34.1 153.532 34.8333 152.745 35.38C151.972 35.9267 150.965 36.2 149.725 36.2C148.072 36.2 146.792 35.7467 145.885 34.84C144.979 33.92 144.525 32.64 144.525 31C144.525 29.36 144.972 28.0867 145.865 27.18C146.772 26.26 148.025 25.8 149.625 25.8ZM165.572 34.34C165.852 34.34 166.079 34.3133 166.252 34.26L166.052 35.92C165.679 36.1067 165.246 36.2 164.752 36.2C163.472 36.2 162.706 35.7 162.452 34.7C162.159 35.1933 161.706 35.5667 161.092 35.82C160.479 36.0733 159.752 36.2 158.912 36.2C157.939 36.2 157.179 35.98 156.632 35.54C156.086 35.1 155.812 34.4667 155.812 33.64C155.812 32.0133 157.112 30.96 159.712 30.48L162.112 30.02V29.54C162.112 29.0067 161.959 28.5867 161.652 28.28C161.359 27.96 160.946 27.8 160.412 27.8C159.799 27.8 159.299 27.9333 158.912 28.2C158.526 28.4667 158.259 28.9 158.112 29.5L155.932 28.58C156.146 27.7133 156.626 27.0333 157.372 26.54C158.119 26.0467 159.092 25.8 160.292 25.8C161.719 25.8 162.832 26.1133 163.632 26.74C164.432 27.3533 164.832 28.2667 164.832 29.48V33.58C164.832 33.8467 164.892 34.04 165.012 34.16C165.132 34.28 165.319 34.34 165.572 34.34ZM159.772 34.34C160.359 34.34 160.892 34.2 161.372 33.92C161.866 33.6267 162.112 33.2333 162.112 32.74V31.7L159.972 32.18C159.519 32.2867 159.179 32.4333 158.952 32.62C158.739 32.7933 158.632 33.04 158.632 33.36C158.632 33.68 158.732 33.9267 158.932 34.1C159.132 34.26 159.412 34.34 159.772 34.34ZM174.386 35.38C174.066 35.6333 173.659 35.8333 173.166 35.98C172.686 36.1267 172.179 36.2 171.646 36.2C169.419 36.2 168.306 35.1933 168.306 33.18V28.04H166.486V26H168.306V23.7L171.046 22.94V26H174.286V28.04H171.046V32.74C171.046 33.66 171.506 34.12 172.426 34.12C173.013 34.12 173.526 33.9333 173.966 33.56L174.386 35.38ZM177.48 24.56C176.347 24.56 175.78 24.0733 175.78 23.1C175.78 22.1133 176.347 21.62 177.48 21.62C178.613 21.62 179.18 22.1133 179.18 23.1C179.18 24.0733 178.613 24.56 177.48 24.56ZM178.84 36H176.1V26H178.84V36ZM186.345 25.8C187.958 25.8 189.211 26.26 190.105 27.18C191.011 28.1 191.465 29.3733 191.465 31C191.465 32.6267 191.011 33.9 190.105 34.82C189.211 35.74 187.958 36.2 186.345 36.2C184.731 36.2 183.471 35.74 182.565 34.82C181.671 33.9 181.225 32.6267 181.225 31C181.225 29.3733 181.671 28.1 182.565 27.18C183.471 26.26 184.731 25.8 186.345 25.8ZM186.345 27.84C185.571 27.84 184.978 28.1067 184.565 28.64C184.165 29.16 183.965 29.9467 183.965 31C183.965 32.0533 184.165 32.8467 184.565 33.38C184.978 33.9 185.571 34.16 186.345 34.16C187.118 34.16 187.705 33.9 188.105 33.38C188.518 32.8467 188.725 32.0533 188.725 31C188.725 29.9467 188.518 29.16 188.105 28.64C187.705 28.1067 187.118 27.84 186.345 27.84ZM199.775 25.8C200.855 25.8 201.722 26.1133 202.375 26.74C203.042 27.3667 203.375 28.2667 203.375 29.44V36H200.635V30.24C200.635 28.72 200.042 27.96 198.855 27.96C198.215 27.96 197.668 28.1867 197.215 28.64C196.775 29.0933 196.555 29.7867 196.555 30.72V36H193.815V26H196.275L196.355 27.78C196.688 27.1267 197.148 26.6333 197.735 26.3C198.322 25.9667 199.002 25.8 199.775 25.8Z" fill="#222222"/>
<path d="M100.26 45.8C101.793 45.8 102.987 46.1733 103.84 46.92C104.693 47.6533 105.12 48.6933 105.12 50.04C105.12 51.3467 104.693 52.3667 103.84 53.1C102.987 53.8333 101.793 54.2 100.26 54.2H97.48V59H94.72V45.8H100.26ZM99.84 52.06C100.693 52.06 101.32 51.8933 101.72 51.56C102.12 51.2133 102.32 50.7 102.32 50.02C102.32 49.34 102.12 48.8333 101.72 48.5C101.32 48.1667 100.693 48 99.84 48H97.48V52.06H99.84ZM116.456 53.96C116.456 54.3333 116.429 54.6933 116.376 55.04H109.296C109.576 56.4533 110.409 57.16 111.796 57.16C112.369 57.16 112.842 57.0533 113.216 56.84C113.589 56.6267 113.849 56.32 113.996 55.92L116.236 56.74C115.916 57.54 115.376 58.1533 114.616 58.58C113.869 58.9933 112.929 59.2 111.796 59.2C110.142 59.2 108.862 58.7467 107.956 57.84C107.049 56.92 106.596 55.64 106.596 54C106.596 52.36 107.036 51.0867 107.916 50.18C108.796 49.26 110.036 48.8 111.636 48.8C113.182 48.8 114.369 49.2467 115.196 50.14C116.036 51.0333 116.456 52.3067 116.456 53.96ZM111.616 50.82C110.949 50.82 110.416 51.0133 110.016 51.4C109.629 51.7867 109.382 52.36 109.276 53.12H113.936C113.829 52.3733 113.576 51.8067 113.176 51.42C112.776 51.02 112.256 50.82 111.616 50.82ZM124.716 48.8C125.796 48.8 126.663 49.1133 127.316 49.74C127.983 50.3667 128.316 51.2667 128.316 52.44V59H125.576V53.24C125.576 51.72 124.983 50.96 123.796 50.96C123.156 50.96 122.61 51.1867 122.156 51.64C121.716 52.0933 121.496 52.7867 121.496 53.72V59H118.756V49H121.216L121.296 50.78C121.63 50.1267 122.09 49.6333 122.676 49.3C123.263 48.9667 123.943 48.8 124.716 48.8ZM140.819 44.62V59H138.379L138.259 57.14C137.966 57.7667 137.526 58.2667 136.939 58.64C136.366 59.0133 135.706 59.2 134.959 59.2C133.626 59.2 132.579 58.7467 131.819 57.84C131.059 56.92 130.679 55.6467 130.679 54.02C130.679 52.38 131.059 51.1 131.819 50.18C132.579 49.26 133.626 48.8 134.959 48.8C135.679 48.8 136.306 48.9667 136.839 49.3C137.373 49.62 137.786 50.0667 138.079 50.64V44.62H140.819ZM135.759 57.1C136.479 57.1 137.046 56.84 137.459 56.32C137.873 55.8 138.079 55.06 138.079 54.1V53.9C138.079 52.9533 137.873 52.22 137.459 51.7C137.046 51.1667 136.479 50.9 135.759 50.9C135.026 50.9 134.453 51.1667 134.039 51.7C133.626 52.2333 133.419 53 133.419 54C133.419 55 133.626 55.7667 134.039 56.3C134.453 56.8333 135.026 57.1 135.759 57.1ZM145.097 47.56C143.964 47.56 143.397 47.0733 143.397 46.1C143.397 45.1133 143.964 44.62 145.097 44.62C146.231 44.62 146.797 45.1133 146.797 46.1C146.797 47.0733 146.231 47.56 145.097 47.56ZM146.457 59H143.717V49H146.457V59ZM155.322 48.8C156.402 48.8 157.269 49.1133 157.922 49.74C158.589 50.3667 158.922 51.2667 158.922 52.44V59H156.182V53.24C156.182 51.72 155.589 50.96 154.402 50.96C153.762 50.96 153.215 51.1867 152.762 51.64C152.322 52.0933 152.102 52.7867 152.102 53.72V59H149.362V49H151.822L151.902 50.78C152.235 50.1267 152.695 49.6333 153.282 49.3C153.869 48.9667 154.549 48.8 155.322 48.8ZM167.825 57.12C168.918 57.12 169.758 57.36 170.345 57.84C170.945 58.32 171.245 59.0067 171.245 59.9C171.245 60.9667 170.751 61.8 169.765 62.4C168.778 63 167.478 63.3 165.865 63.3C164.198 63.3 162.958 63.08 162.145 62.64C161.345 62.2 160.945 61.6 160.945 60.84C160.945 60.3867 161.098 59.9933 161.405 59.66C161.711 59.3267 162.165 59.0867 162.765 58.94C162.311 58.7533 161.951 58.4933 161.685 58.16C161.418 57.8133 161.285 57.4067 161.285 56.94C161.285 56.46 161.425 56.0467 161.705 55.7C161.985 55.3533 162.371 55.0933 162.865 54.92C162.358 54.6267 161.971 54.2533 161.705 53.8C161.438 53.3333 161.305 52.8 161.305 52.2C161.305 51.1467 161.711 50.32 162.525 49.72C163.351 49.1067 164.471 48.8 165.885 48.8C166.605 48.8 167.278 48.8867 167.905 49.06C168.078 48.2733 168.411 47.66 168.905 47.22C169.411 46.7667 170.091 46.5667 170.945 46.62L171.305 48.58C171.211 48.5667 171.071 48.56 170.885 48.56C170.391 48.56 169.978 48.6467 169.645 48.82C169.325 48.9933 169.098 49.2267 168.965 49.52C169.458 49.8133 169.831 50.1867 170.085 50.64C170.351 51.0933 170.485 51.6133 170.485 52.2C170.485 53.24 170.071 54.0667 169.245 54.68C168.431 55.28 167.311 55.58 165.885 55.58C165.231 55.58 164.631 55.52 164.085 55.4C163.565 55.5333 163.305 55.8333 163.305 56.3C163.305 56.5667 163.405 56.7733 163.605 56.92C163.805 57.0533 164.085 57.12 164.445 57.12H167.825ZM165.885 50.52C165.351 50.52 164.911 50.6733 164.565 50.98C164.231 51.2867 164.065 51.6867 164.065 52.18C164.065 52.6867 164.231 53.0933 164.565 53.4C164.911 53.7067 165.351 53.86 165.885 53.86C166.431 53.86 166.871 53.7067 167.205 53.4C167.551 53.0933 167.725 52.6867 167.725 52.18C167.725 51.6867 167.551 51.2867 167.205 50.98C166.871 50.6733 166.431 50.52 165.885 50.52ZM166.085 61.42C167.018 61.42 167.738 61.3 168.245 61.06C168.751 60.8333 169.005 60.54 169.005 60.18C169.005 59.9 168.885 59.6867 168.645 59.54C168.418 59.4067 168.038 59.34 167.505 59.34H164.785C163.678 59.34 163.125 59.64 163.125 60.24C163.125 60.6133 163.371 60.9 163.865 61.1C164.358 61.3133 165.098 61.42 166.085 61.42Z" fill="#26A6FE"/>
</svg>
