<svg width="205" height="70" viewBox="0 0 205 70" fill="none" xmlns="http://www.w3.org/2000/svg">
<path d="M75 35C75 39.32 74.215 43.46 72.78 47.28C68.685 58.225 59.255 66.57 47.66 69.16C45.195 69.71 42.63 70 40 70C20.67 70 5 54.33 5 35C5 15.67 20.67 0 40 0C59.33 0 75 15.67 75 35Z" fill="#F8A300"/>
<path d="M72.78 47.28C68.685 58.225 59.255 66.57 47.66 69.16L30 51L48.5 22.5L72.78 47.28Z" fill="#DD8300"/>
<path d="M61.9996 46.105C57.6396 38.48 53.2796 30.86 48.9146 23.24C48.7496 22.96 48.5496 22.69 48.3246 22.46C47.4096 21.54 46.2896 21.17 45.0096 21.3C43.6546 21.44 42.6196 22.095 41.9396 23.285C41.7346 23.645 41.5346 24.01 41.3346 24.375C37.2996 31.635 33.2596 38.9 29.2246 46.16C28.9296 46.685 28.7696 47.245 28.7546 47.845C28.6896 50.01 30.4796 51.995 32.8096 51.985C37.0846 51.96 41.3546 51.98 45.6296 51.98C49.8896 51.98 54.1496 51.975 58.4146 51.98C59.7396 51.98 60.8046 51.46 61.6296 50.435C62.6346 49.19 62.7846 47.47 61.9996 46.105ZM47.1496 45.82H44.0946V42.765H47.1496V45.82ZM47.1546 39.675H44.0996V30.475H47.1546V39.675Z" fill="white"/>
<path d="M31.13 36.385C31.1 36.445 31.08 36.49 31.055 36.53C30.605 37.345 30.15 38.16 29.705 38.975C29.645 39.08 29.595 39.1 29.48 39.065C24.89 37.72 21.32 34.145 20.015 29.56C19.555 27.95 19.41 26.305 19.555 24.635C20.015 19.45 23.325 14.98 28.165 13.015C29.97 12.28 31.85 11.93 33.79 12.025C38.505 12.26 42.175 14.375 44.855 18.245C44.87 18.265 44.88 18.29 44.885 18.295C44.355 18.405 43.81 18.475 43.29 18.625C42.77 18.775 42.27 19.005 41.74 19.21C39.95 17 37.64 15.59 34.76 15.185C32.595 14.885 30.52 15.22 28.565 16.2C24.565 18.2 22.23 22.365 22.6 26.76C23 31.36 26.395 35.39 31.13 36.385Z" fill="white"/>
<path d="M31.8003 24.32C31.8003 22.255 31.8003 20.22 31.8003 18.175C32.8253 18.175 33.8353 18.175 34.8603 18.175C34.8603 21.24 34.8603 24.305 34.8603 27.38C31.7953 27.38 28.7303 27.38 25.6553 27.38C25.6553 26.36 25.6553 25.35 25.6553 24.32C27.6953 24.32 29.7353 24.32 31.8003 24.32Z" fill="white"/>
<path d="M102.22 26.78H97.14L96.06 30H93.24L98.06 16.8H101.36L106.18 30H103.32L102.22 26.78ZM101.54 24.74L100.3 21.02L99.7 19.02H99.66L99.1 20.98L97.82 24.74H101.54ZM113.738 19.8C115.071 19.8 116.118 20.26 116.878 21.18C117.638 22.0867 118.018 23.3533 118.018 24.98C118.018 26.62 117.638 27.9 116.878 28.82C116.118 29.74 115.071 30.2 113.738 30.2C113.018 30.2 112.391 30.04 111.858 29.72C111.325 29.3867 110.905 28.9333 110.598 28.36V34.2H107.858V20H110.278L110.378 21.98C110.671 21.3133 111.105 20.7867 111.678 20.4C112.265 20 112.951 19.8 113.738 19.8ZM112.918 28.1C113.665 28.1 114.245 27.8333 114.658 27.3C115.071 26.7667 115.278 26 115.278 25C115.278 24 115.071 23.2333 114.658 22.7C114.245 22.1667 113.665 21.9 112.918 21.9C112.251 21.9 111.711 22.1333 111.298 22.6C110.885 23.0533 110.651 23.7067 110.598 24.56V25.44C110.651 26.28 110.885 26.9333 111.298 27.4C111.711 27.8667 112.251 28.1 112.918 28.1ZM126.316 19.8C127.649 19.8 128.696 20.26 129.456 21.18C130.216 22.0867 130.596 23.3533 130.596 24.98C130.596 26.62 130.216 27.9 129.456 28.82C128.696 29.74 127.649 30.2 126.316 30.2C125.596 30.2 124.969 30.04 124.436 29.72C123.903 29.3867 123.483 28.9333 123.176 28.36V34.2H120.436V20H122.856L122.956 21.98C123.249 21.3133 123.683 20.7867 124.256 20.4C124.843 20 125.529 19.8 126.316 19.8ZM125.496 28.1C126.243 28.1 126.823 27.8333 127.236 27.3C127.649 26.7667 127.856 26 127.856 25C127.856 24 127.649 23.2333 127.236 22.7C126.823 22.1667 126.243 21.9 125.496 21.9C124.829 21.9 124.289 22.1333 123.876 22.6C123.463 23.0533 123.229 23.7067 123.176 24.56V25.44C123.229 26.28 123.463 26.9333 123.876 27.4C124.289 27.8667 124.829 28.1 125.496 28.1ZM135.714 26.82C135.714 27.3 135.781 27.6333 135.914 27.82C136.061 28.0067 136.321 28.1 136.694 28.1C136.921 28.1 137.114 28.0867 137.274 28.06C137.448 28.02 137.648 27.96 137.874 27.88L137.634 29.78C137.421 29.9133 137.141 30.0133 136.794 30.08C136.448 30.16 136.108 30.2 135.774 30.2C134.801 30.2 134.088 29.9667 133.634 29.5C133.194 29.02 132.974 28.26 132.974 27.22V15.62H135.714V26.82ZM140.781 18.56C139.648 18.56 139.081 18.0733 139.081 17.1C139.081 16.1133 139.648 15.62 140.781 15.62C141.914 15.62 142.481 16.1133 142.481 17.1C142.481 18.0733 141.914 18.56 140.781 18.56ZM142.141 30H139.401V20H142.141V30ZM149.625 19.8C150.945 19.8 151.972 20.0667 152.705 20.6C153.439 21.1333 153.939 21.8467 154.205 22.74L151.645 23.66C151.405 22.4467 150.759 21.84 149.705 21.84C148.919 21.84 148.312 22.1133 147.885 22.66C147.472 23.1933 147.265 23.98 147.265 25.02C147.265 26.06 147.479 26.8467 147.905 27.38C148.332 27.9 148.925 28.16 149.685 28.16C150.859 28.16 151.552 27.5667 151.765 26.38L154.245 27.18C154.032 28.1 153.532 28.8333 152.745 29.38C151.972 29.9267 150.965 30.2 149.725 30.2C148.072 30.2 146.792 29.7467 145.885 28.84C144.979 27.92 144.525 26.64 144.525 25C144.525 23.36 144.972 22.0867 145.865 21.18C146.772 20.26 148.025 19.8 149.625 19.8ZM165.572 28.34C165.852 28.34 166.079 28.3133 166.252 28.26L166.052 29.92C165.679 30.1067 165.246 30.2 164.752 30.2C163.472 30.2 162.706 29.7 162.452 28.7C162.159 29.1933 161.706 29.5667 161.092 29.82C160.479 30.0733 159.752 30.2 158.912 30.2C157.939 30.2 157.179 29.98 156.632 29.54C156.086 29.1 155.812 28.4667 155.812 27.64C155.812 26.0133 157.112 24.96 159.712 24.48L162.112 24.02V23.54C162.112 23.0067 161.959 22.5867 161.652 22.28C161.359 21.96 160.946 21.8 160.412 21.8C159.799 21.8 159.299 21.9333 158.912 22.2C158.526 22.4667 158.259 22.9 158.112 23.5L155.932 22.58C156.146 21.7133 156.626 21.0333 157.372 20.54C158.119 20.0467 159.092 19.8 160.292 19.8C161.719 19.8 162.832 20.1133 163.632 20.74C164.432 21.3533 164.832 22.2667 164.832 23.48V27.58C164.832 27.8467 164.892 28.04 165.012 28.16C165.132 28.28 165.319 28.34 165.572 28.34ZM159.772 28.34C160.359 28.34 160.892 28.2 161.372 27.92C161.866 27.6267 162.112 27.2333 162.112 26.74V25.7L159.972 26.18C159.519 26.2867 159.179 26.4333 158.952 26.62C158.739 26.7933 158.632 27.04 158.632 27.36C158.632 27.68 158.732 27.9267 158.932 28.1C159.132 28.26 159.412 28.34 159.772 28.34ZM174.386 29.38C174.066 29.6333 173.659 29.8333 173.166 29.98C172.686 30.1267 172.179 30.2 171.646 30.2C169.419 30.2 168.306 29.1933 168.306 27.18V22.04H166.486V20H168.306V17.7L171.046 16.94V20H174.286V22.04H171.046V26.74C171.046 27.66 171.506 28.12 172.426 28.12C173.013 28.12 173.526 27.9333 173.966 27.56L174.386 29.38ZM177.48 18.56C176.347 18.56 175.78 18.0733 175.78 17.1C175.78 16.1133 176.347 15.62 177.48 15.62C178.613 15.62 179.18 16.1133 179.18 17.1C179.18 18.0733 178.613 18.56 177.48 18.56ZM178.84 30H176.1V20H178.84V30ZM186.345 19.8C187.958 19.8 189.211 20.26 190.105 21.18C191.011 22.1 191.465 23.3733 191.465 25C191.465 26.6267 191.011 27.9 190.105 28.82C189.211 29.74 187.958 30.2 186.345 30.2C184.731 30.2 183.471 29.74 182.565 28.82C181.671 27.9 181.225 26.6267 181.225 25C181.225 23.3733 181.671 22.1 182.565 21.18C183.471 20.26 184.731 19.8 186.345 19.8ZM186.345 21.84C185.571 21.84 184.978 22.1067 184.565 22.64C184.165 23.16 183.965 23.9467 183.965 25C183.965 26.0533 184.165 26.8467 184.565 27.38C184.978 27.9 185.571 28.16 186.345 28.16C187.118 28.16 187.705 27.9 188.105 27.38C188.518 26.8467 188.725 26.0533 188.725 25C188.725 23.9467 188.518 23.16 188.105 22.64C187.705 22.1067 187.118 21.84 186.345 21.84ZM199.775 19.8C200.855 19.8 201.722 20.1133 202.375 20.74C203.042 21.3667 203.375 22.2667 203.375 23.44V30H200.635V24.24C200.635 22.72 200.042 21.96 198.855 21.96C198.215 21.96 197.668 22.1867 197.215 22.64C196.775 23.0933 196.555 23.7867 196.555 24.72V30H193.815V20H196.275L196.355 21.78C196.688 21.1267 197.148 20.6333 197.735 20.3C198.322 19.9667 199.002 19.8 199.775 19.8Z" fill="#222222"/>
<path d="M104.9 50.78V53H94.72V39.8H104.62V42.02H97.48V45.3H103.1V47.42H97.48V50.78H104.9ZM113.556 53L111.296 49.36L108.996 53H105.936L109.616 47.94L106.116 43H109.276L111.416 46.5L113.556 43H116.636L113.096 47.94L116.696 53H113.556ZM124.363 42.8C125.696 42.8 126.743 43.26 127.503 44.18C128.263 45.0867 128.643 46.3533 128.643 47.98C128.643 49.62 128.263 50.9 127.503 51.82C126.743 52.74 125.696 53.2 124.363 53.2C123.643 53.2 123.016 53.04 122.483 52.72C121.95 52.3867 121.53 51.9333 121.223 51.36V57.2H118.483V43H120.903L121.003 44.98C121.296 44.3133 121.73 43.7867 122.303 43.4C122.89 43 123.576 42.8 124.363 42.8ZM123.543 51.1C124.29 51.1 124.87 50.8333 125.283 50.3C125.696 49.7667 125.903 49 125.903 48C125.903 47 125.696 46.2333 125.283 45.7C124.87 45.1667 124.29 44.9 123.543 44.9C122.876 44.9 122.336 45.1333 121.923 45.6C121.51 46.0533 121.276 46.7067 121.223 47.56V48.44C121.276 49.28 121.51 49.9333 121.923 50.4C122.336 50.8667 122.876 51.1 123.543 51.1ZM132.441 41.56C131.308 41.56 130.741 41.0733 130.741 40.1C130.741 39.1133 131.308 38.62 132.441 38.62C133.574 38.62 134.141 39.1133 134.141 40.1C134.141 41.0733 133.574 41.56 132.441 41.56ZM133.801 53H131.061V43H133.801V53ZM142.366 42.8C142.832 42.8 143.192 42.8733 143.446 43.02L143.106 45.42C142.799 45.22 142.379 45.12 141.846 45.12C141.192 45.12 140.626 45.36 140.146 45.84C139.679 46.3067 139.446 46.9667 139.446 47.82V53H136.706V43H139.086L139.266 44.96C139.812 43.52 140.846 42.8 142.366 42.8ZM154.288 47.96C154.288 48.3333 154.261 48.6933 154.208 49.04H147.128C147.408 50.4533 148.241 51.16 149.628 51.16C150.201 51.16 150.674 51.0533 151.048 50.84C151.421 50.6267 151.681 50.32 151.828 49.92L154.068 50.74C153.748 51.54 153.208 52.1533 152.448 52.58C151.701 52.9933 150.761 53.2 149.628 53.2C147.974 53.2 146.694 52.7467 145.788 51.84C144.881 50.92 144.428 49.64 144.428 48C144.428 46.36 144.868 45.0867 145.748 44.18C146.628 43.26 147.868 42.8 149.468 42.8C151.014 42.8 152.201 43.2467 153.028 44.14C153.868 45.0333 154.288 46.3067 154.288 47.96ZM149.448 44.82C148.781 44.82 148.248 45.0133 147.848 45.4C147.461 45.7867 147.214 46.36 147.108 47.12H151.768C151.661 46.3733 151.408 45.8067 151.008 45.42C150.608 45.02 150.088 44.82 149.448 44.82ZM166.268 38.62V53H163.828L163.708 51.14C163.415 51.7667 162.975 52.2667 162.388 52.64C161.815 53.0133 161.155 53.2 160.408 53.2C159.075 53.2 158.028 52.7467 157.268 51.84C156.508 50.92 156.128 49.6467 156.128 48.02C156.128 46.38 156.508 45.1 157.268 44.18C158.028 43.26 159.075 42.8 160.408 42.8C161.128 42.8 161.755 42.9667 162.288 43.3C162.822 43.62 163.235 44.0667 163.528 44.64V38.62H166.268ZM161.208 51.1C161.928 51.1 162.495 50.84 162.908 50.32C163.322 49.8 163.528 49.06 163.528 48.1V47.9C163.528 46.9533 163.322 46.22 162.908 45.7C162.495 45.1667 161.928 44.9 161.208 44.9C160.475 44.9 159.902 45.1667 159.488 45.7C159.075 46.2333 158.868 47 158.868 48C158.868 49 159.075 49.7667 159.488 50.3C159.902 50.8333 160.475 51.1 161.208 51.1Z" fill="#F8A300"/>
</svg>
