<svg width="205" height="78" viewBox="0 0 205 78" fill="none" xmlns="http://www.w3.org/2000/svg">
<path d="M102.22 26.78H97.14L96.06 30H93.24L98.06 16.8H101.36L106.18 30H103.32L102.22 26.78ZM101.54 24.74L100.3 21.02L99.7 19.02H99.66L99.1 20.98L97.82 24.74H101.54ZM113.738 19.8C115.071 19.8 116.118 20.26 116.878 21.18C117.638 22.0867 118.018 23.3533 118.018 24.98C118.018 26.62 117.638 27.9 116.878 28.82C116.118 29.74 115.071 30.2 113.738 30.2C113.018 30.2 112.391 30.04 111.858 29.72C111.325 29.3867 110.905 28.9333 110.598 28.36V34.2H107.858V20H110.278L110.378 21.98C110.671 21.3133 111.105 20.7867 111.678 20.4C112.265 20 112.951 19.8 113.738 19.8ZM112.918 28.1C113.665 28.1 114.245 27.8333 114.658 27.3C115.071 26.7667 115.278 26 115.278 25C115.278 24 115.071 23.2333 114.658 22.7C114.245 22.1667 113.665 21.9 112.918 21.9C112.251 21.9 111.711 22.1333 111.298 22.6C110.885 23.0533 110.651 23.7067 110.598 24.56V25.44C110.651 26.28 110.885 26.9333 111.298 27.4C111.711 27.8667 112.251 28.1 112.918 28.1ZM126.316 19.8C127.649 19.8 128.696 20.26 129.456 21.18C130.216 22.0867 130.596 23.3533 130.596 24.98C130.596 26.62 130.216 27.9 129.456 28.82C128.696 29.74 127.649 30.2 126.316 30.2C125.596 30.2 124.969 30.04 124.436 29.72C123.903 29.3867 123.483 28.9333 123.176 28.36V34.2H120.436V20H122.856L122.956 21.98C123.249 21.3133 123.683 20.7867 124.256 20.4C124.843 20 125.529 19.8 126.316 19.8ZM125.496 28.1C126.243 28.1 126.823 27.8333 127.236 27.3C127.649 26.7667 127.856 26 127.856 25C127.856 24 127.649 23.2333 127.236 22.7C126.823 22.1667 126.243 21.9 125.496 21.9C124.829 21.9 124.289 22.1333 123.876 22.6C123.463 23.0533 123.229 23.7067 123.176 24.56V25.44C123.229 26.28 123.463 26.9333 123.876 27.4C124.289 27.8667 124.829 28.1 125.496 28.1ZM135.714 26.82C135.714 27.3 135.781 27.6333 135.914 27.82C136.061 28.0067 136.321 28.1 136.694 28.1C136.921 28.1 137.114 28.0867 137.274 28.06C137.448 28.02 137.648 27.96 137.874 27.88L137.634 29.78C137.421 29.9133 137.141 30.0133 136.794 30.08C136.448 30.16 136.108 30.2 135.774 30.2C134.801 30.2 134.088 29.9667 133.634 29.5C133.194 29.02 132.974 28.26 132.974 27.22V15.62H135.714V26.82ZM140.781 18.56C139.648 18.56 139.081 18.0733 139.081 17.1C139.081 16.1133 139.648 15.62 140.781 15.62C141.914 15.62 142.481 16.1133 142.481 17.1C142.481 18.0733 141.914 18.56 140.781 18.56ZM142.141 30H139.401V20H142.141V30ZM149.625 19.8C150.945 19.8 151.972 20.0667 152.705 20.6C153.439 21.1333 153.939 21.8467 154.205 22.74L151.645 23.66C151.405 22.4467 150.759 21.84 149.705 21.84C148.919 21.84 148.312 22.1133 147.885 22.66C147.472 23.1933 147.265 23.98 147.265 25.02C147.265 26.06 147.479 26.8467 147.905 27.38C148.332 27.9 148.925 28.16 149.685 28.16C150.859 28.16 151.552 27.5667 151.765 26.38L154.245 27.18C154.032 28.1 153.532 28.8333 152.745 29.38C151.972 29.9267 150.965 30.2 149.725 30.2C148.072 30.2 146.792 29.7467 145.885 28.84C144.979 27.92 144.525 26.64 144.525 25C144.525 23.36 144.972 22.0867 145.865 21.18C146.772 20.26 148.025 19.8 149.625 19.8ZM165.572 28.34C165.852 28.34 166.079 28.3133 166.252 28.26L166.052 29.92C165.679 30.1067 165.246 30.2 164.752 30.2C163.472 30.2 162.706 29.7 162.452 28.7C162.159 29.1933 161.706 29.5667 161.092 29.82C160.479 30.0733 159.752 30.2 158.912 30.2C157.939 30.2 157.179 29.98 156.632 29.54C156.086 29.1 155.812 28.4667 155.812 27.64C155.812 26.0133 157.112 24.96 159.712 24.48L162.112 24.02V23.54C162.112 23.0067 161.959 22.5867 161.652 22.28C161.359 21.96 160.946 21.8 160.412 21.8C159.799 21.8 159.299 21.9333 158.912 22.2C158.526 22.4667 158.259 22.9 158.112 23.5L155.932 22.58C156.146 21.7133 156.626 21.0333 157.372 20.54C158.119 20.0467 159.092 19.8 160.292 19.8C161.719 19.8 162.832 20.1133 163.632 20.74C164.432 21.3533 164.832 22.2667 164.832 23.48V27.58C164.832 27.8467 164.892 28.04 165.012 28.16C165.132 28.28 165.319 28.34 165.572 28.34ZM159.772 28.34C160.359 28.34 160.892 28.2 161.372 27.92C161.866 27.6267 162.112 27.2333 162.112 26.74V25.7L159.972 26.18C159.519 26.2867 159.179 26.4333 158.952 26.62C158.739 26.7933 158.632 27.04 158.632 27.36C158.632 27.68 158.732 27.9267 158.932 28.1C159.132 28.26 159.412 28.34 159.772 28.34ZM174.386 29.38C174.066 29.6333 173.659 29.8333 173.166 29.98C172.686 30.1267 172.179 30.2 171.646 30.2C169.419 30.2 168.306 29.1933 168.306 27.18V22.04H166.486V20H168.306V17.7L171.046 16.94V20H174.286V22.04H171.046V26.74C171.046 27.66 171.506 28.12 172.426 28.12C173.013 28.12 173.526 27.9333 173.966 27.56L174.386 29.38ZM177.48 18.56C176.347 18.56 175.78 18.0733 175.78 17.1C175.78 16.1133 176.347 15.62 177.48 15.62C178.613 15.62 179.18 16.1133 179.18 17.1C179.18 18.0733 178.613 18.56 177.48 18.56ZM178.84 30H176.1V20H178.84V30ZM186.345 19.8C187.958 19.8 189.211 20.26 190.105 21.18C191.011 22.1 191.465 23.3733 191.465 25C191.465 26.6267 191.011 27.9 190.105 28.82C189.211 29.74 187.958 30.2 186.345 30.2C184.731 30.2 183.471 29.74 182.565 28.82C181.671 27.9 181.225 26.6267 181.225 25C181.225 23.3733 181.671 22.1 182.565 21.18C183.471 20.26 184.731 19.8 186.345 19.8ZM186.345 21.84C185.571 21.84 184.978 22.1067 184.565 22.64C184.165 23.16 183.965 23.9467 183.965 25C183.965 26.0533 184.165 26.8467 184.565 27.38C184.978 27.9 185.571 28.16 186.345 28.16C187.118 28.16 187.705 27.9 188.105 27.38C188.518 26.8467 188.725 26.0533 188.725 25C188.725 23.9467 188.518 23.16 188.105 22.64C187.705 22.1067 187.118 21.84 186.345 21.84ZM199.775 19.8C200.855 19.8 201.722 20.1133 202.375 20.74C203.042 21.3667 203.375 22.2667 203.375 23.44V30H200.635V24.24C200.635 22.72 200.042 21.96 198.855 21.96C198.215 21.96 197.668 22.1867 197.215 22.64C196.775 23.0933 196.555 23.7867 196.555 24.72V30H193.815V20H196.275L196.355 21.78C196.688 21.1267 197.148 20.6333 197.735 20.3C198.322 19.9667 199.002 19.8 199.775 19.8Z" fill="#222222"/>
<path d="M102.22 49.78H97.14L96.06 53H93.24L98.06 39.8H101.36L106.18 53H103.32L102.22 49.78ZM101.54 47.74L100.3 44.02L99.7 42.02H99.66L99.1 43.98L97.82 47.74H101.54ZM113.738 42.8C115.071 42.8 116.118 43.26 116.878 44.18C117.638 45.0867 118.018 46.3533 118.018 47.98C118.018 49.62 117.638 50.9 116.878 51.82C116.118 52.74 115.071 53.2 113.738 53.2C113.018 53.2 112.391 53.04 111.858 52.72C111.325 52.3867 110.905 51.9333 110.598 51.36V57.2H107.858V43H110.278L110.378 44.98C110.671 44.3133 111.105 43.7867 111.678 43.4C112.265 43 112.951 42.8 113.738 42.8ZM112.918 51.1C113.665 51.1 114.245 50.8333 114.658 50.3C115.071 49.7667 115.278 49 115.278 48C115.278 47 115.071 46.2333 114.658 45.7C114.245 45.1667 113.665 44.9 112.918 44.9C112.251 44.9 111.711 45.1333 111.298 45.6C110.885 46.0533 110.651 46.7067 110.598 47.56V48.44C110.651 49.28 110.885 49.9333 111.298 50.4C111.711 50.8667 112.251 51.1 112.918 51.1ZM126.316 42.8C127.649 42.8 128.696 43.26 129.456 44.18C130.216 45.0867 130.596 46.3533 130.596 47.98C130.596 49.62 130.216 50.9 129.456 51.82C128.696 52.74 127.649 53.2 126.316 53.2C125.596 53.2 124.969 53.04 124.436 52.72C123.903 52.3867 123.483 51.9333 123.176 51.36V57.2H120.436V43H122.856L122.956 44.98C123.249 44.3133 123.683 43.7867 124.256 43.4C124.843 43 125.529 42.8 126.316 42.8ZM125.496 51.1C126.243 51.1 126.823 50.8333 127.236 50.3C127.649 49.7667 127.856 49 127.856 48C127.856 47 127.649 46.2333 127.236 45.7C126.823 45.1667 126.243 44.9 125.496 44.9C124.829 44.9 124.289 45.1333 123.876 45.6C123.463 46.0533 123.229 46.7067 123.176 47.56V48.44C123.229 49.28 123.463 49.9333 123.876 50.4C124.289 50.8667 124.829 51.1 125.496 51.1ZM138.674 42.8C139.141 42.8 139.501 42.8733 139.754 43.02L139.414 45.42C139.108 45.22 138.688 45.12 138.154 45.12C137.501 45.12 136.934 45.36 136.454 45.84C135.988 46.3067 135.754 46.9667 135.754 47.82V53H133.014V43H135.394L135.574 44.96C136.121 43.52 137.154 42.8 138.674 42.8ZM145.856 42.8C147.47 42.8 148.723 43.26 149.616 44.18C150.523 45.1 150.976 46.3733 150.976 48C150.976 49.6267 150.523 50.9 149.616 51.82C148.723 52.74 147.47 53.2 145.856 53.2C144.243 53.2 142.983 52.74 142.076 51.82C141.183 50.9 140.736 49.6267 140.736 48C140.736 46.3733 141.183 45.1 142.076 44.18C142.983 43.26 144.243 42.8 145.856 42.8ZM145.856 44.84C145.083 44.84 144.49 45.1067 144.076 45.64C143.676 46.16 143.476 46.9467 143.476 48C143.476 49.0533 143.676 49.8467 144.076 50.38C144.49 50.9 145.083 51.16 145.856 51.16C146.63 51.16 147.216 50.9 147.616 50.38C148.03 49.8467 148.236 49.0533 148.236 48C148.236 46.9467 148.03 46.16 147.616 45.64C147.216 45.1067 146.63 44.84 145.856 44.84ZM162.59 43L158.79 53H155.63L151.83 43H154.77L157.23 51.08L159.75 43H162.59ZM173.311 47.96C173.311 48.3333 173.285 48.6933 173.231 49.04H166.151C166.431 50.4533 167.265 51.16 168.651 51.16C169.225 51.16 169.698 51.0533 170.071 50.84C170.445 50.6267 170.705 50.32 170.851 49.92L173.091 50.74C172.771 51.54 172.231 52.1533 171.471 52.58C170.725 52.9933 169.785 53.2 168.651 53.2C166.998 53.2 165.718 52.7467 164.811 51.84C163.905 50.92 163.451 49.64 163.451 48C163.451 46.36 163.891 45.0867 164.771 44.18C165.651 43.26 166.891 42.8 168.491 42.8C170.038 42.8 171.225 43.2467 172.051 44.14C172.891 45.0333 173.311 46.3067 173.311 47.96ZM168.471 44.82C167.805 44.82 167.271 45.0133 166.871 45.4C166.485 45.7867 166.238 46.36 166.131 47.12H170.791C170.685 46.3733 170.431 45.8067 170.031 45.42C169.631 45.02 169.111 44.82 168.471 44.82ZM185.292 38.62V53H182.852L182.732 51.14C182.439 51.7667 181.999 52.2667 181.412 52.64C180.839 53.0133 180.179 53.2 179.432 53.2C178.099 53.2 177.052 52.7467 176.292 51.84C175.532 50.92 175.152 49.6467 175.152 48.02C175.152 46.38 175.532 45.1 176.292 44.18C177.052 43.26 178.099 42.8 179.432 42.8C180.152 42.8 180.779 42.9667 181.312 43.3C181.845 43.62 182.259 44.0667 182.552 44.64V38.62H185.292ZM180.232 51.1C180.952 51.1 181.519 50.84 181.932 50.32C182.345 49.8 182.552 49.06 182.552 48.1V47.9C182.552 46.9533 182.345 46.22 181.932 45.7C181.519 45.1667 180.952 44.9 180.232 44.9C179.499 44.9 178.925 45.1667 178.512 45.7C178.099 46.2333 177.892 47 177.892 48C177.892 49 178.099 49.7667 178.512 50.3C178.925 50.8333 179.499 51.1 180.232 51.1Z" fill="#32BA7C"/>
<g filter="url(#filter0_d)">
<path d="M75 35C75 35.98 74.96 36.95 74.88 37.91C74.835 38.48 74.775 39.04 74.7 39.6C74.35 42.265 73.695 44.84 72.78 47.28C69.405 56.3 62.41 63.555 53.56 67.27C53.505 67.295 53.45 67.315 53.395 67.34C51.56 68.105 49.64 68.72 47.66 69.16C45.195 69.71 42.63 70 40 70C20.67 70 5 54.33 5 35C5 15.67 20.67 0 40 0C59.33 0 75 15.67 75 35Z" fill="#32BA7C"/>
<path d="M74.7 39.6C74.35 42.265 73.695 44.84 72.78 47.28C69.405 56.3 62.41 63.555 53.56 67.27L33.105 46.82L57.51 22.415L74.7 39.6Z" fill="#0AA06E"/>
<path d="M24.8647 33.935L36.2547 44.735L55.1347 25.265" stroke="white" stroke-width="7.5" stroke-miterlimit="10" stroke-linecap="round" stroke-linejoin="round"/>
</g>
<defs>
<filter id="filter0_d" x="1" y="0" width="78" height="78" filterUnits="userSpaceOnUse" color-interpolation-filters="sRGB">
<feFlood flood-opacity="0" result="BackgroundImageFix"/>
<feColorMatrix in="SourceAlpha" type="matrix" values="0 0 0 0 0 0 0 0 0 0 0 0 0 0 0 0 0 0 127 0"/>
<feOffset dy="4"/>
<feGaussianBlur stdDeviation="2"/>
<feColorMatrix type="matrix" values="0 0 0 0 0 0 0 0 0 0 0 0 0 0 0 0 0 0 0.25 0"/>
<feBlend mode="normal" in2="BackgroundImageFix" result="effect1_dropShadow"/>
<feBlend mode="normal" in="SourceGraphic" in2="effect1_dropShadow" result="shape"/>
</filter>
</defs>
</svg>
