<svg width="205" height="70" viewBox="0 0 205 70" fill="none" xmlns="http://www.w3.org/2000/svg">
<path d="M75 35C75 37.335 74.77 39.615 74.335 41.825C73.96 43.7 73.44 45.525 72.78 47.28C68.685 58.225 59.255 66.57 47.66 69.16C47.335 69.235 47.005 69.3 46.675 69.365C44.515 69.78 42.28 70 40 70C20.67 70 5 54.33 5 35C5 15.67 20.67 0 40 0C59.33 0 75 15.67 75 35Z" fill="#E24C4B"/>
<path d="M74.3353 41.825C73.9603 43.7 73.4403 45.525 72.7803 47.28C68.6853 58.225 59.2553 66.57 47.6603 69.16C47.3353 69.235 47.0053 69.3 46.6753 69.365L26.1553 48.845L53.7553 21.245L74.3353 41.825Z" fill="#C63939"/>
<path d="M28.5 23.5L51.5 46.5" stroke="white" stroke-width="7.5" stroke-miterlimit="10" stroke-linecap="round" stroke-linejoin="round"/>
<path d="M51.5 23.5L28.5 46.5" stroke="white" stroke-width="7.5" stroke-miterlimit="10" stroke-linecap="round" stroke-linejoin="round"/>
<path d="M102.22 26.78H97.14L96.06 30H93.24L98.06 16.8H101.36L106.18 30H103.32L102.22 26.78ZM101.54 24.74L100.3 21.02L99.7 19.02H99.66L99.1 20.98L97.82 24.74H101.54ZM113.738 19.8C115.071 19.8 116.118 20.26 116.878 21.18C117.638 22.0867 118.018 23.3533 118.018 24.98C118.018 26.62 117.638 27.9 116.878 28.82C116.118 29.74 115.071 30.2 113.738 30.2C113.018 30.2 112.391 30.04 111.858 29.72C111.325 29.3867 110.905 28.9333 110.598 28.36V34.2H107.858V20H110.278L110.378 21.98C110.671 21.3133 111.105 20.7867 111.678 20.4C112.265 20 112.951 19.8 113.738 19.8ZM112.918 28.1C113.665 28.1 114.245 27.8333 114.658 27.3C115.071 26.7667 115.278 26 115.278 25C115.278 24 115.071 23.2333 114.658 22.7C114.245 22.1667 113.665 21.9 112.918 21.9C112.251 21.9 111.711 22.1333 111.298 22.6C110.885 23.0533 110.651 23.7067 110.598 24.56V25.44C110.651 26.28 110.885 26.9333 111.298 27.4C111.711 27.8667 112.251 28.1 112.918 28.1ZM126.316 19.8C127.649 19.8 128.696 20.26 129.456 21.18C130.216 22.0867 130.596 23.3533 130.596 24.98C130.596 26.62 130.216 27.9 129.456 28.82C128.696 29.74 127.649 30.2 126.316 30.2C125.596 30.2 124.969 30.04 124.436 29.72C123.903 29.3867 123.483 28.9333 123.176 28.36V34.2H120.436V20H122.856L122.956 21.98C123.249 21.3133 123.683 20.7867 124.256 20.4C124.843 20 125.529 19.8 126.316 19.8ZM125.496 28.1C126.243 28.1 126.823 27.8333 127.236 27.3C127.649 26.7667 127.856 26 127.856 25C127.856 24 127.649 23.2333 127.236 22.7C126.823 22.1667 126.243 21.9 125.496 21.9C124.829 21.9 124.289 22.1333 123.876 22.6C123.463 23.0533 123.229 23.7067 123.176 24.56V25.44C123.229 26.28 123.463 26.9333 123.876 27.4C124.289 27.8667 124.829 28.1 125.496 28.1ZM135.714 26.82C135.714 27.3 135.781 27.6333 135.914 27.82C136.061 28.0067 136.321 28.1 136.694 28.1C136.921 28.1 137.114 28.0867 137.274 28.06C137.448 28.02 137.648 27.96 137.874 27.88L137.634 29.78C137.421 29.9133 137.141 30.0133 136.794 30.08C136.448 30.16 136.108 30.2 135.774 30.2C134.801 30.2 134.088 29.9667 133.634 29.5C133.194 29.02 132.974 28.26 132.974 27.22V15.62H135.714V26.82ZM140.781 18.56C139.648 18.56 139.081 18.0733 139.081 17.1C139.081 16.1133 139.648 15.62 140.781 15.62C141.914 15.62 142.481 16.1133 142.481 17.1C142.481 18.0733 141.914 18.56 140.781 18.56ZM142.141 30H139.401V20H142.141V30ZM149.625 19.8C150.945 19.8 151.972 20.0667 152.705 20.6C153.439 21.1333 153.939 21.8467 154.205 22.74L151.645 23.66C151.405 22.4467 150.759 21.84 149.705 21.84C148.919 21.84 148.312 22.1133 147.885 22.66C147.472 23.1933 147.265 23.98 147.265 25.02C147.265 26.06 147.479 26.8467 147.905 27.38C148.332 27.9 148.925 28.16 149.685 28.16C150.859 28.16 151.552 27.5667 151.765 26.38L154.245 27.18C154.032 28.1 153.532 28.8333 152.745 29.38C151.972 29.9267 150.965 30.2 149.725 30.2C148.072 30.2 146.792 29.7467 145.885 28.84C144.979 27.92 144.525 26.64 144.525 25C144.525 23.36 144.972 22.0867 145.865 21.18C146.772 20.26 148.025 19.8 149.625 19.8ZM165.572 28.34C165.852 28.34 166.079 28.3133 166.252 28.26L166.052 29.92C165.679 30.1067 165.246 30.2 164.752 30.2C163.472 30.2 162.706 29.7 162.452 28.7C162.159 29.1933 161.706 29.5667 161.092 29.82C160.479 30.0733 159.752 30.2 158.912 30.2C157.939 30.2 157.179 29.98 156.632 29.54C156.086 29.1 155.812 28.4667 155.812 27.64C155.812 26.0133 157.112 24.96 159.712 24.48L162.112 24.02V23.54C162.112 23.0067 161.959 22.5867 161.652 22.28C161.359 21.96 160.946 21.8 160.412 21.8C159.799 21.8 159.299 21.9333 158.912 22.2C158.526 22.4667 158.259 22.9 158.112 23.5L155.932 22.58C156.146 21.7133 156.626 21.0333 157.372 20.54C158.119 20.0467 159.092 19.8 160.292 19.8C161.719 19.8 162.832 20.1133 163.632 20.74C164.432 21.3533 164.832 22.2667 164.832 23.48V27.58C164.832 27.8467 164.892 28.04 165.012 28.16C165.132 28.28 165.319 28.34 165.572 28.34ZM159.772 28.34C160.359 28.34 160.892 28.2 161.372 27.92C161.866 27.6267 162.112 27.2333 162.112 26.74V25.7L159.972 26.18C159.519 26.2867 159.179 26.4333 158.952 26.62C158.739 26.7933 158.632 27.04 158.632 27.36C158.632 27.68 158.732 27.9267 158.932 28.1C159.132 28.26 159.412 28.34 159.772 28.34ZM174.386 29.38C174.066 29.6333 173.659 29.8333 173.166 29.98C172.686 30.1267 172.179 30.2 171.646 30.2C169.419 30.2 168.306 29.1933 168.306 27.18V22.04H166.486V20H168.306V17.7L171.046 16.94V20H174.286V22.04H171.046V26.74C171.046 27.66 171.506 28.12 172.426 28.12C173.013 28.12 173.526 27.9333 173.966 27.56L174.386 29.38ZM177.48 18.56C176.347 18.56 175.78 18.0733 175.78 17.1C175.78 16.1133 176.347 15.62 177.48 15.62C178.613 15.62 179.18 16.1133 179.18 17.1C179.18 18.0733 178.613 18.56 177.48 18.56ZM178.84 30H176.1V20H178.84V30ZM186.345 19.8C187.958 19.8 189.211 20.26 190.105 21.18C191.011 22.1 191.465 23.3733 191.465 25C191.465 26.6267 191.011 27.9 190.105 28.82C189.211 29.74 187.958 30.2 186.345 30.2C184.731 30.2 183.471 29.74 182.565 28.82C181.671 27.9 181.225 26.6267 181.225 25C181.225 23.3733 181.671 22.1 182.565 21.18C183.471 20.26 184.731 19.8 186.345 19.8ZM186.345 21.84C185.571 21.84 184.978 22.1067 184.565 22.64C184.165 23.16 183.965 23.9467 183.965 25C183.965 26.0533 184.165 26.8467 184.565 27.38C184.978 27.9 185.571 28.16 186.345 28.16C187.118 28.16 187.705 27.9 188.105 27.38C188.518 26.8467 188.725 26.0533 188.725 25C188.725 23.9467 188.518 23.16 188.105 22.64C187.705 22.1067 187.118 21.84 186.345 21.84ZM199.775 19.8C200.855 19.8 201.722 20.1133 202.375 20.74C203.042 21.3667 203.375 22.2667 203.375 23.44V30H200.635V24.24C200.635 22.72 200.042 21.96 198.855 21.96C198.215 21.96 197.668 22.1867 197.215 22.64C196.775 23.0933 196.555 23.7867 196.555 24.72V30H193.815V20H196.275L196.355 21.78C196.688 21.1267 197.148 20.6333 197.735 20.3C198.322 19.9667 199.002 19.8 199.775 19.8Z" fill="#222222"/>
<path d="M99.82 39.8C101.887 39.8 103.487 40.3733 104.62 41.52C105.753 42.6667 106.32 44.2933 106.32 46.4C106.32 48.5067 105.753 50.1333 104.62 51.28C103.487 52.4267 101.887 53 99.82 53H94.72V39.8H99.82ZM99.68 50.8C100.933 50.8 101.873 50.4267 102.5 49.68C103.14 48.92 103.46 47.8267 103.46 46.4C103.46 44.9733 103.14 43.8867 102.5 43.14C101.873 42.38 100.933 42 99.68 42H97.48V50.8H99.68ZM118.155 47.96C118.155 48.3333 118.128 48.6933 118.075 49.04H110.995C111.275 50.4533 112.108 51.16 113.495 51.16C114.068 51.16 114.542 51.0533 114.915 50.84C115.288 50.6267 115.548 50.32 115.695 49.92L117.935 50.74C117.615 51.54 117.075 52.1533 116.315 52.58C115.568 52.9933 114.628 53.2 113.495 53.2C111.842 53.2 110.562 52.7467 109.655 51.84C108.748 50.92 108.295 49.64 108.295 48C108.295 46.36 108.735 45.0867 109.615 44.18C110.495 43.26 111.735 42.8 113.335 42.8C114.882 42.8 116.068 43.2467 116.895 44.14C117.735 45.0333 118.155 46.3067 118.155 47.96ZM113.315 44.82C112.648 44.82 112.115 45.0133 111.715 45.4C111.328 45.7867 111.082 46.36 110.975 47.12H115.635C115.528 46.3733 115.275 45.8067 114.875 45.42C114.475 45.02 113.955 44.82 113.315 44.82ZM126.416 42.8C127.496 42.8 128.362 43.1133 129.016 43.74C129.682 44.3667 130.016 45.2667 130.016 46.44V53H127.276V47.24C127.276 45.72 126.682 44.96 125.496 44.96C124.856 44.96 124.309 45.1867 123.856 45.64C123.416 46.0933 123.196 46.7867 123.196 47.72V53H120.456V43H122.916L122.996 44.78C123.329 44.1267 123.789 43.6333 124.376 43.3C124.962 42.9667 125.642 42.8 126.416 42.8ZM134.218 41.56C133.085 41.56 132.518 41.0733 132.518 40.1C132.518 39.1133 133.085 38.62 134.218 38.62C135.352 38.62 135.918 39.1133 135.918 40.1C135.918 41.0733 135.352 41.56 134.218 41.56ZM135.578 53H132.838V43H135.578V53ZM147.823 47.96C147.823 48.3333 147.796 48.6933 147.743 49.04H140.663C140.943 50.4533 141.776 51.16 143.163 51.16C143.736 51.16 144.21 51.0533 144.583 50.84C144.956 50.6267 145.216 50.32 145.363 49.92L147.603 50.74C147.283 51.54 146.743 52.1533 145.983 52.58C145.236 52.9933 144.296 53.2 143.163 53.2C141.51 53.2 140.23 52.7467 139.323 51.84C138.416 50.92 137.963 49.64 137.963 48C137.963 46.36 138.403 45.0867 139.283 44.18C140.163 43.26 141.403 42.8 143.003 42.8C144.55 42.8 145.736 43.2467 146.563 44.14C147.403 45.0333 147.823 46.3067 147.823 47.96ZM142.983 44.82C142.316 44.82 141.783 45.0133 141.383 45.4C140.996 45.7867 140.75 46.36 140.643 47.12H145.303C145.196 46.3733 144.943 45.8067 144.543 45.42C144.143 45.02 143.623 44.82 142.983 44.82ZM159.804 38.62V53H157.364L157.244 51.14C156.95 51.7667 156.51 52.2667 155.924 52.64C155.35 53.0133 154.69 53.2 153.944 53.2C152.61 53.2 151.564 52.7467 150.804 51.84C150.044 50.92 149.664 49.6467 149.664 48.02C149.664 46.38 150.044 45.1 150.804 44.18C151.564 43.26 152.61 42.8 153.944 42.8C154.664 42.8 155.29 42.9667 155.824 43.3C156.357 43.62 156.77 44.0667 157.064 44.64V38.62H159.804ZM154.744 51.1C155.464 51.1 156.03 50.84 156.444 50.32C156.857 49.8 157.064 49.06 157.064 48.1V47.9C157.064 46.9533 156.857 46.22 156.444 45.7C156.03 45.1667 155.464 44.9 154.744 44.9C154.01 44.9 153.437 45.1667 153.024 45.7C152.61 46.2333 152.404 47 152.404 48C152.404 49 152.61 49.7667 153.024 50.3C153.437 50.8333 154.01 51.1 154.744 51.1Z" fill="#E24C4B"/>
</svg>
