<svg width="203" height="70" viewBox="0 0 203 70" fill="none" xmlns="http://www.w3.org/2000/svg">
<path d="M75 35C75 39.32 74.215 43.46 72.78 47.28C68.685 58.225 59.255 66.57 47.66 69.16C45.195 69.71 42.63 70 40 70C20.67 70 5 54.33 5 35C5 15.67 20.67 0 40 0C59.33 0 75 15.67 75 35Z" fill="#6B6B6B"/>
<path d="M72.78 47.28C68.685 58.225 59.255 66.57 47.66 69.16L30 51L48.5 22.5L72.78 47.28Z" fill="#898989"/>
<path d="M52.8316 18.8333C51.3099 18.8333 50.0816 19.9779 50.0816 21.3958V29.9375C50.0816 30.4158 49.6783 30.7917 49.1649 30.7917C48.6516 30.7917 48.2483 30.4158 48.2483 29.9375V16.2708C48.2483 14.8529 47.0199 13.7083 45.4983 13.7083C43.9766 13.7083 42.7483 14.8529 42.7483 16.2708V29.9375C42.7483 30.4158 42.3449 30.7917 41.8316 30.7917C41.3183 30.7917 40.9149 30.4158 40.9149 29.9375V14.5625C40.9149 13.1446 39.6866 12 38.1649 12C36.6433 12 35.4149 13.1446 35.4149 14.5625V29.9204C35.4149 30.3988 35.0116 30.7746 34.4983 30.7746C33.9849 30.7746 33.5816 30.3988 33.5816 29.9204V19.6875C33.5816 18.2696 32.3533 17.125 30.8316 17.125C29.3099 17.125 28.0816 18.2696 28.0816 19.6875V39.1796L20.5283 35.165C19.4649 34.6013 18.1449 34.755 17.2649 35.5408C16.1649 36.5317 16.1283 38.1717 17.2099 39.1796L29.6399 50.95C31.0149 52.2654 32.8849 53 34.8649 53H48.2483C52.2999 53 55.5816 49.9421 55.5816 46.1667V21.3958C55.5816 19.9779 54.3533 18.8333 52.8316 18.8333Z" fill="#FAFAFA"/>
<path d="M99.92 24.94H97.44V30H94.72V16.8H100.54C102.047 16.8 103.22 17.16 104.06 17.88C104.913 18.5867 105.34 19.5867 105.34 20.88C105.34 21.8267 105.107 22.62 104.64 23.26C104.173 23.9 103.507 24.36 102.64 24.64L106.12 30H103.02L99.92 24.94ZM97.44 22.84H100.18C100.98 22.84 101.567 22.6867 101.94 22.38C102.327 22.06 102.52 21.5733 102.52 20.92C102.52 20.2667 102.327 19.7867 101.94 19.48C101.567 19.16 100.98 19 100.18 19H97.44V22.84ZM117.174 28.34C117.454 28.34 117.68 28.3133 117.854 28.26L117.654 29.92C117.28 30.1067 116.847 30.2 116.354 30.2C115.074 30.2 114.307 29.7 114.054 28.7C113.76 29.1933 113.307 29.5667 112.694 29.82C112.08 30.0733 111.354 30.2 110.514 30.2C109.54 30.2 108.78 29.98 108.234 29.54C107.687 29.1 107.414 28.4667 107.414 27.64C107.414 26.0133 108.714 24.96 111.314 24.48L113.714 24.02V23.54C113.714 23.0067 113.56 22.5867 113.254 22.28C112.96 21.96 112.547 21.8 112.014 21.8C111.4 21.8 110.9 21.9333 110.514 22.2C110.127 22.4667 109.86 22.9 109.714 23.5L107.534 22.58C107.747 21.7133 108.227 21.0333 108.974 20.54C109.72 20.0467 110.694 19.8 111.894 19.8C113.32 19.8 114.434 20.1133 115.234 20.74C116.034 21.3533 116.434 22.2667 116.434 23.48V27.58C116.434 27.8467 116.494 28.04 116.614 28.16C116.734 28.28 116.92 28.34 117.174 28.34ZM111.374 28.34C111.96 28.34 112.494 28.2 112.974 27.92C113.467 27.6267 113.714 27.2333 113.714 26.74V25.7L111.574 26.18C111.12 26.2867 110.78 26.4333 110.554 26.62C110.34 26.7933 110.234 27.04 110.234 27.36C110.234 27.68 110.334 27.9267 110.534 28.1C110.734 28.26 111.014 28.34 111.374 28.34ZM125.398 19.8C126.731 19.8 127.778 20.26 128.538 21.18C129.298 22.0867 129.678 23.3533 129.678 24.98C129.678 26.62 129.298 27.9 128.538 28.82C127.778 29.74 126.731 30.2 125.398 30.2C124.678 30.2 124.051 30.04 123.518 29.72C122.985 29.3867 122.565 28.9333 122.258 28.36V34.2H119.518V20H121.938L122.038 21.98C122.331 21.3133 122.765 20.7867 123.338 20.4C123.925 20 124.611 19.8 125.398 19.8ZM124.578 28.1C125.325 28.1 125.905 27.8333 126.318 27.3C126.731 26.7667 126.938 26 126.938 25C126.938 24 126.731 23.2333 126.318 22.7C125.905 22.1667 125.325 21.9 124.578 21.9C123.911 21.9 123.371 22.1333 122.958 22.6C122.545 23.0533 122.311 23.7067 122.258 24.56V25.44C122.311 26.28 122.545 26.9333 122.958 27.4C123.371 27.8667 123.911 28.1 124.578 28.1ZM133.476 18.56C132.343 18.56 131.776 18.0733 131.776 17.1C131.776 16.1133 132.343 15.62 133.476 15.62C134.61 15.62 135.176 16.1133 135.176 17.1C135.176 18.0733 134.61 18.56 133.476 18.56ZM134.836 30H132.096V20H134.836V30ZM147.421 15.62V30H144.981L144.861 28.14C144.567 28.7667 144.127 29.2667 143.541 29.64C142.967 30.0133 142.307 30.2 141.561 30.2C140.227 30.2 139.181 29.7467 138.421 28.84C137.661 27.92 137.281 26.6467 137.281 25.02C137.281 23.38 137.661 22.1 138.421 21.18C139.181 20.26 140.227 19.8 141.561 19.8C142.281 19.8 142.907 19.9667 143.441 20.3C143.974 20.62 144.387 21.0667 144.681 21.64V15.62H147.421ZM142.361 28.1C143.081 28.1 143.647 27.84 144.061 27.32C144.474 26.8 144.681 26.06 144.681 25.1V24.9C144.681 23.9533 144.474 23.22 144.061 22.7C143.647 22.1667 143.081 21.9 142.361 21.9C141.627 21.9 141.054 22.1667 140.641 22.7C140.227 23.2333 140.021 24 140.021 25C140.021 26 140.227 26.7667 140.641 27.3C141.054 27.8333 141.627 28.1 142.361 28.1ZM156.08 16.8C157.614 16.8 158.807 17.1733 159.66 17.92C160.514 18.6533 160.94 19.6933 160.94 21.04C160.94 22.3467 160.514 23.3667 159.66 24.1C158.807 24.8333 157.614 25.2 156.08 25.2H153.3V30H150.54V16.8H156.08ZM155.66 23.06C156.514 23.06 157.14 22.8933 157.54 22.56C157.94 22.2133 158.14 21.7 158.14 21.02C158.14 20.34 157.94 19.8333 157.54 19.5C157.14 19.1667 156.514 19 155.66 19H153.3V23.06H155.66ZM172.33 28.34C172.61 28.34 172.837 28.3133 173.01 28.26L172.81 29.92C172.437 30.1067 172.003 30.2 171.51 30.2C170.23 30.2 169.463 29.7 169.21 28.7C168.917 29.1933 168.463 29.5667 167.85 29.82C167.237 30.0733 166.51 30.2 165.67 30.2C164.697 30.2 163.937 29.98 163.39 29.54C162.843 29.1 162.57 28.4667 162.57 27.64C162.57 26.0133 163.87 24.96 166.47 24.48L168.87 24.02V23.54C168.87 23.0067 168.717 22.5867 168.41 22.28C168.117 21.96 167.703 21.8 167.17 21.8C166.557 21.8 166.057 21.9333 165.67 22.2C165.283 22.4667 165.017 22.9 164.87 23.5L162.69 22.58C162.903 21.7133 163.383 21.0333 164.13 20.54C164.877 20.0467 165.85 19.8 167.05 19.8C168.477 19.8 169.59 20.1133 170.39 20.74C171.19 21.3533 171.59 22.2667 171.59 23.48V27.58C171.59 27.8467 171.65 28.04 171.77 28.16C171.89 28.28 172.077 28.34 172.33 28.34ZM166.53 28.34C167.117 28.34 167.65 28.2 168.13 27.92C168.623 27.6267 168.87 27.2333 168.87 26.74V25.7L166.73 26.18C166.277 26.2867 165.937 26.4333 165.71 26.62C165.497 26.7933 165.39 27.04 165.39 27.36C165.39 27.68 165.49 27.9267 165.69 28.1C165.89 28.26 166.17 28.34 166.53 28.34ZM178.554 30.2C176.328 30.2 174.781 29.56 173.914 28.28L175.514 26.64C175.781 27.2133 176.161 27.62 176.654 27.86C177.161 28.0867 177.781 28.2 178.514 28.2C179.101 28.2 179.554 28.12 179.874 27.96C180.194 27.8 180.354 27.58 180.354 27.3C180.354 27.0733 180.201 26.88 179.894 26.72C179.601 26.56 179.088 26.4067 178.354 26.26C176.821 25.9533 175.741 25.5533 175.114 25.06C174.501 24.5533 174.194 23.8733 174.194 23.02C174.194 22.46 174.368 21.9333 174.714 21.44C175.061 20.9467 175.574 20.5533 176.254 20.26C176.934 19.9533 177.748 19.8 178.694 19.8C179.814 19.8 180.721 19.9733 181.414 20.32C182.108 20.6533 182.688 21.1867 183.154 21.92L181.454 23.36C181.161 22.8267 180.794 22.4333 180.354 22.18C179.928 21.9267 179.388 21.8 178.734 21.8C178.188 21.8 177.748 21.8933 177.414 22.08C177.094 22.2667 176.934 22.4933 176.934 22.76C176.934 23.04 177.094 23.2733 177.414 23.46C177.734 23.6467 178.301 23.82 179.114 23.98C180.568 24.2733 181.594 24.66 182.194 25.14C182.808 25.6067 183.114 26.26 183.114 27.1C183.114 28.0333 182.714 28.7867 181.914 29.36C181.128 29.92 180.008 30.2 178.554 30.2ZM189.179 30.2C186.953 30.2 185.406 29.56 184.539 28.28L186.139 26.64C186.406 27.2133 186.786 27.62 187.279 27.86C187.786 28.0867 188.406 28.2 189.139 28.2C189.726 28.2 190.179 28.12 190.499 27.96C190.819 27.8 190.979 27.58 190.979 27.3C190.979 27.0733 190.826 26.88 190.519 26.72C190.226 26.56 189.713 26.4067 188.979 26.26C187.446 25.9533 186.366 25.5533 185.739 25.06C185.126 24.5533 184.819 23.8733 184.819 23.02C184.819 22.46 184.993 21.9333 185.339 21.44C185.686 20.9467 186.199 20.5533 186.879 20.26C187.559 19.9533 188.373 19.8 189.319 19.8C190.439 19.8 191.346 19.9733 192.039 20.32C192.733 20.6533 193.313 21.1867 193.779 21.92L192.079 23.36C191.786 22.8267 191.419 22.4333 190.979 22.18C190.553 21.9267 190.013 21.8 189.359 21.8C188.813 21.8 188.373 21.8933 188.039 22.08C187.719 22.2667 187.559 22.4933 187.559 22.76C187.559 23.04 187.719 23.2733 188.039 23.46C188.359 23.6467 188.926 23.82 189.739 23.98C191.193 24.2733 192.219 24.66 192.819 25.14C193.433 25.6067 193.739 26.26 193.739 27.1C193.739 28.0333 193.339 28.7867 192.539 29.36C191.753 29.92 190.633 30.2 189.179 30.2Z" fill="#222222"/>
<path d="M99.54 39.6C100.767 39.6 101.82 39.8067 102.7 40.22C103.58 40.62 104.353 41.26 105.02 42.14L103.12 44C102.773 43.28 102.313 42.7467 101.74 42.4C101.167 42.04 100.44 41.86 99.56 41.86C98.76 41.86 98.14 42.0133 97.7 42.32C97.2733 42.6133 97.06 43.0067 97.06 43.5C97.06 43.9533 97.28 44.3133 97.72 44.58C98.16 44.8467 98.9533 45.08 100.1 45.28C101.3 45.5067 102.253 45.7867 102.96 46.12C103.667 46.4533 104.18 46.8733 104.5 47.38C104.833 47.8733 105 48.4933 105 49.24C105 50.0533 104.767 50.76 104.3 51.36C103.847 51.9467 103.207 52.4 102.38 52.72C101.567 53.04 100.633 53.2 99.58 53.2C98.1267 53.2 96.9333 53 96 52.6C95.08 52.1867 94.3333 51.5667 93.76 50.74L95.4 48.78C95.8933 49.5933 96.46 50.16 97.1 50.48C97.74 50.7867 98.5333 50.94 99.48 50.94C100.333 50.94 100.98 50.8067 101.42 50.54C101.873 50.2733 102.1 49.8933 102.1 49.4C102.1 49.04 101.887 48.74 101.46 48.5C101.047 48.26 100.3 48.0333 99.22 47.82C97.98 47.5667 96.9867 47.2667 96.24 46.92C95.5067 46.5733 94.9733 46.1467 94.64 45.64C94.3067 45.1333 94.14 44.5067 94.14 43.76C94.14 42.9733 94.3533 42.2667 94.78 41.64C95.2067 41 95.8267 40.5 96.64 40.14C97.4667 39.78 98.4333 39.6 99.54 39.6ZM116.733 43V53H114.293L114.193 51.28C113.553 52.56 112.386 53.2 110.693 53.2C109.613 53.2 108.753 52.9133 108.113 52.34C107.486 51.7533 107.173 50.8467 107.173 49.62V43H109.913V48.92C109.913 49.6933 110.06 50.24 110.353 50.56C110.646 50.88 111.08 51.04 111.653 51.04C112.346 51.04 112.906 50.82 113.333 50.38C113.773 49.9267 113.993 49.2533 113.993 48.36V43H116.733ZM123.496 53.2C121.269 53.2 119.722 52.56 118.856 51.28L120.456 49.64C120.722 50.2133 121.102 50.62 121.596 50.86C122.102 51.0867 122.722 51.2 123.456 51.2C124.042 51.2 124.496 51.12 124.816 50.96C125.136 50.8 125.296 50.58 125.296 50.3C125.296 50.0733 125.142 49.88 124.836 49.72C124.542 49.56 124.029 49.4067 123.296 49.26C121.762 48.9533 120.682 48.5533 120.056 48.06C119.442 47.5533 119.136 46.8733 119.136 46.02C119.136 45.46 119.309 44.9333 119.656 44.44C120.002 43.9467 120.516 43.5533 121.196 43.26C121.876 42.9533 122.689 42.8 123.636 42.8C124.756 42.8 125.662 42.9733 126.356 43.32C127.049 43.6533 127.629 44.1867 128.096 44.92L126.396 46.36C126.102 45.8267 125.736 45.4333 125.296 45.18C124.869 44.9267 124.329 44.8 123.676 44.8C123.129 44.8 122.689 44.8933 122.356 45.08C122.036 45.2667 121.876 45.4933 121.876 45.76C121.876 46.04 122.036 46.2733 122.356 46.46C122.676 46.6467 123.242 46.82 124.056 46.98C125.509 47.2733 126.536 47.66 127.136 48.14C127.749 48.6067 128.056 49.26 128.056 50.1C128.056 51.0333 127.656 51.7867 126.856 52.36C126.069 52.92 124.949 53.2 123.496 53.2ZM136.121 42.8C137.454 42.8 138.501 43.26 139.261 44.18C140.021 45.0867 140.401 46.3533 140.401 47.98C140.401 49.62 140.021 50.9 139.261 51.82C138.501 52.74 137.454 53.2 136.121 53.2C135.401 53.2 134.774 53.04 134.241 52.72C133.707 52.3867 133.287 51.9333 132.981 51.36V57.2H130.241V43H132.661L132.761 44.98C133.054 44.3133 133.487 43.7867 134.061 43.4C134.647 43 135.334 42.8 136.121 42.8ZM135.301 51.1C136.047 51.1 136.627 50.8333 137.041 50.3C137.454 49.7667 137.661 49 137.661 48C137.661 47 137.454 46.2333 137.041 45.7C136.627 45.1667 136.047 44.9 135.301 44.9C134.634 44.9 134.094 45.1333 133.681 45.6C133.267 46.0533 133.034 46.7067 132.981 47.56V48.44C133.034 49.28 133.267 49.9333 133.681 50.4C134.094 50.8667 134.634 51.1 135.301 51.1ZM152.159 47.96C152.159 48.3333 152.132 48.6933 152.079 49.04H144.999C145.279 50.4533 146.112 51.16 147.499 51.16C148.072 51.16 148.546 51.0533 148.919 50.84C149.292 50.6267 149.552 50.32 149.699 49.92L151.939 50.74C151.619 51.54 151.079 52.1533 150.319 52.58C149.572 52.9933 148.632 53.2 147.499 53.2C145.846 53.2 144.566 52.7467 143.659 51.84C142.752 50.92 142.299 49.64 142.299 48C142.299 46.36 142.739 45.0867 143.619 44.18C144.499 43.26 145.739 42.8 147.339 42.8C148.886 42.8 150.072 43.2467 150.899 44.14C151.739 45.0333 152.159 46.3067 152.159 47.96ZM147.319 44.82C146.652 44.82 146.119 45.0133 145.719 45.4C145.332 45.7867 145.086 46.36 144.979 47.12H149.639C149.532 46.3733 149.279 45.8067 148.879 45.42C148.479 45.02 147.959 44.82 147.319 44.82ZM160.42 42.8C161.5 42.8 162.366 43.1133 163.02 43.74C163.686 44.3667 164.02 45.2667 164.02 46.44V53H161.28V47.24C161.28 45.72 160.686 44.96 159.5 44.96C158.86 44.96 158.313 45.1867 157.86 45.64C157.42 46.0933 157.2 46.7867 157.2 47.72V53H154.46V43H156.92L157 44.78C157.333 44.1267 157.793 43.6333 158.38 43.3C158.966 42.9667 159.646 42.8 160.42 42.8ZM176.522 38.62V53H174.082L173.962 51.14C173.669 51.7667 173.229 52.2667 172.642 52.64C172.069 53.0133 171.409 53.2 170.662 53.2C169.329 53.2 168.282 52.7467 167.522 51.84C166.762 50.92 166.382 49.6467 166.382 48.02C166.382 46.38 166.762 45.1 167.522 44.18C168.282 43.26 169.329 42.8 170.662 42.8C171.382 42.8 172.009 42.9667 172.542 43.3C173.076 43.62 173.489 44.0667 173.782 44.64V38.62H176.522ZM171.462 51.1C172.182 51.1 172.749 50.84 173.162 50.32C173.576 49.8 173.782 49.06 173.782 48.1V47.9C173.782 46.9533 173.576 46.22 173.162 45.7C172.749 45.1667 172.182 44.9 171.462 44.9C170.729 44.9 170.156 45.1667 169.742 45.7C169.329 46.2333 169.122 47 169.122 48C169.122 49 169.329 49.7667 169.742 50.3C170.156 50.8333 170.729 51.1 171.462 51.1ZM188.76 47.96C188.76 48.3333 188.734 48.6933 188.68 49.04H181.6C181.88 50.4533 182.714 51.16 184.1 51.16C184.674 51.16 185.147 51.0533 185.52 50.84C185.894 50.6267 186.154 50.32 186.3 49.92L188.54 50.74C188.22 51.54 187.68 52.1533 186.92 52.58C186.174 52.9933 185.234 53.2 184.1 53.2C182.447 53.2 181.167 52.7467 180.26 51.84C179.354 50.92 178.9 49.64 178.9 48C178.9 46.36 179.34 45.0867 180.22 44.18C181.1 43.26 182.34 42.8 183.94 42.8C185.487 42.8 186.674 43.2467 187.5 44.14C188.34 45.0333 188.76 46.3067 188.76 47.96ZM183.92 44.82C183.254 44.82 182.72 45.0133 182.32 45.4C181.934 45.7867 181.687 46.36 181.58 47.12H186.24C186.134 46.3733 185.88 45.8067 185.48 45.42C185.08 45.02 184.56 44.82 183.92 44.82ZM200.741 38.62V53H198.301L198.181 51.14C197.888 51.7667 197.448 52.2667 196.861 52.64C196.288 53.0133 195.628 53.2 194.881 53.2C193.548 53.2 192.501 52.7467 191.741 51.84C190.981 50.92 190.601 49.6467 190.601 48.02C190.601 46.38 190.981 45.1 191.741 44.18C192.501 43.26 193.548 42.8 194.881 42.8C195.601 42.8 196.228 42.9667 196.761 43.3C197.294 43.62 197.708 44.0667 198.001 44.64V38.62H200.741ZM195.681 51.1C196.401 51.1 196.968 50.84 197.381 50.32C197.794 49.8 198.001 49.06 198.001 48.1V47.9C198.001 46.9533 197.794 46.22 197.381 45.7C196.968 45.1667 196.401 44.9 195.681 44.9C194.948 44.9 194.374 45.1667 193.961 45.7C193.548 46.2333 193.341 47 193.341 48C193.341 49 193.548 49.7667 193.961 50.3C194.374 50.8333 194.948 51.1 195.681 51.1Z" fill="#666666"/>
</svg>