<svg xmlns="http://www.w3.org/2000/svg" fill="none" viewBox="0 0 48 48">
  <path fill="#FF7043" d="M30.472 10.697h6.831v6.831h2.158v-6.831c0-1.187-.971-2.158-2.158-2.158h-6.831v2.158zM10.697 17.528v-6.831h6.831V8.539h-6.831c-1.187 0-2.158.971-2.158 2.158v6.831h2.158zM37.303 30.472v6.831h-6.831v2.158h6.831c1.187 0 2.158-.971 2.158-2.158v-6.831h-2.158zM17.528 37.303h-6.831v-6.831H8.539v6.831c0 1.187.971 2.158 2.158 2.158h6.831v-2.158zM6.112 22.921H1.08C.485 22.921 0 23.407 0 24s.485 1.079 1.079 1.079h5.033V22.92zM25.079 6.112V1.08C25.079.485 24.593 0 24 0s-1.079.485-1.079 1.079v5.033h2.158zM22.921 41.888v5.033c0 .594.486 1.079 1.079 1.079s1.079-.485 1.079-1.079v-5.033H22.92zM46.921 22.921h-5.033v2.158h5.033c.594 0 1.079-.486 1.079-1.079s-.485-1.079-1.079-1.079z"/>
  <path fill="#fff" d="M23.78 13.787h.604c.315.099.603.234.82.486.495.575.513 1.492-.154 2.104-.567.521-.35 1.438.396 1.627.703.18 1.351.45 1.981.8.657.37 1.396-.08 1.414-.845v-.279a1.65 1.65 0 0 1 1.323-1.573 1.672 1.672 0 0 1 1.864.953c.306.701.09 1.547-.513 1.996-.37.279-.793.342-1.243.342-.756-.01-1.224.764-.846 1.42.351.612.63 1.25.792 1.934.081.36.316.62.685.701.387.081.738.018 1.026-.306.576-.647 1.495-.656 2.116-.044.216.215.324.494.423.773v.521c-.036.081-.063.162-.1.243a1.453 1.453 0 0 1-2.448.44c-.504-.566-1.432-.395-1.666.333-.216.71-.468 1.403-.846 2.05-.216.37-.117.783.171 1.097.27.288.603.28.954.288.72.01 1.351.477 1.567 1.16.216.693-.009 1.412-.585 1.834-.612.45-1.36.459-1.963.027-.522-.368-.72-.89-.711-1.52.009-.871-.757-1.312-1.504-.871a6.768 6.768 0 0 1-1.773.728c-.388.099-.685.306-.775.71-.099.405 0 .756.333 1.052.514.45.595 1.25.235 1.826-.226.36-.577.54-.955.674h-.522c-.054-.018-.117-.045-.171-.063-.55-.18-.9-.558-1.017-1.124-.118-.548.072-1.016.486-1.376.315-.278.35-.63.279-.998a.832.832 0 0 0-.675-.674c-.712-.153-1.369-.44-2-.81-.377-.215-.8-.134-1.107.172-.27.27-.279.602-.279.953 0 .7-.459 1.312-1.125 1.537a1.684 1.684 0 0 1-1.855-.548c-.423-.53-.477-1.322-.117-1.898.37-.593.91-.827 1.603-.818.828.018 1.278-.755.873-1.466a6.84 6.84 0 0 1-.747-1.843c-.126-.512-.468-.755-1-.764-.306 0-.513.153-.71.36-.577.584-1.424.629-2.045.098-.26-.215-.387-.512-.486-.818v-.602c.126-.306.252-.612.531-.818.63-.495 1.486-.441 2.062.215.387.432 1.387.396 1.603-.341.216-.738.495-1.43.864-2.104.297-.54-.045-1.178-.648-1.313-.153-.036-.306-.027-.46-.027a1.677 1.677 0 0 1-1.647-1.933c.117-.765.774-1.349 1.594-1.421.666-.054 1.404.45 1.647 1.115.1.27.09.54.1.818.017.72.729 1.178 1.359.845a10.3 10.3 0 0 1 2.089-.854c.378-.108.594-.44.63-.836.027-.35-.117-.602-.36-.836-.63-.612-.613-1.592.009-2.158.144-.162.387-.252.62-.35z"/>
</svg>
